<svg width="1600" height="800" viewBox="0 0 1600 800" fill="none" xmlns="http://www.w3.org/2000/svg">
<path d="M595.432 360.102C594.673 362.598 593.48 364.984 591.961 367.046C588.055 372.253 581.546 374.965 574.928 374.857C568.202 374.965 561.692 372.253 557.895 367.046C553.881 361.838 552.688 354.895 552.579 348.06C552.688 341.225 553.881 334.174 557.895 329.075C561.692 323.867 568.202 321.155 574.928 321.155C581.546 321.155 588.055 323.867 591.961 329.075C593.697 331.244 594.781 333.848 595.649 336.56L610.838 333.957C609.427 329.292 607.149 324.41 603.678 320.07C596.734 311.608 586.211 307.377 574.928 307.377C563.645 307.377 553.013 311.499 546.178 320.07C539.777 327.773 536.957 337.32 536.957 348.06C536.957 358.367 539.669 368.022 546.178 375.942C552.688 384.079 563.428 388.744 574.928 388.744C585.777 388.744 596.517 384.621 603.678 375.942C606.607 372.362 608.668 368.348 610.078 364.333L595.432 360.102ZM657.407 388.744C668.256 388.744 678.996 384.621 686.156 375.942C692.557 368.131 695.052 358.909 695.269 348.06C695.052 337.645 692.774 328.098 686.156 320.07C679.213 311.608 668.69 307.377 657.407 307.377C646.124 307.377 635.492 311.499 628.657 320.07C622.365 327.664 619.544 337.645 619.544 348.06C619.544 358.475 622.365 368.348 628.657 375.942C635.383 384.404 646.232 388.744 657.407 388.744ZM657.407 374.857C650.68 374.965 644.171 372.253 640.374 367.046C636.36 361.838 635.167 354.895 635.058 348.06C635.167 341.225 636.36 334.174 640.374 329.075C644.171 323.867 650.68 321.155 657.407 321.263C664.133 321.155 670.534 323.867 674.44 329.075C678.345 334.174 679.647 341.225 679.647 348.06C679.647 354.895 678.345 361.838 674.44 367.046C670.534 372.253 664.133 374.965 657.407 374.857ZM745.188 345.456V357.173H763.306C762.438 360.753 761.136 364.225 758.966 367.046C755.061 372.253 748.551 374.965 741.933 374.857C735.207 374.965 728.698 372.253 724.792 367.046C720.886 361.838 719.693 354.895 719.585 348.06C719.693 341.225 720.886 334.282 724.792 329.075C728.698 323.867 735.207 321.155 741.933 321.263C748.551 321.155 755.061 323.867 758.966 329.075C759.617 329.942 760.051 330.81 760.593 331.678L774.155 325.494C773.178 323.65 771.985 321.806 770.683 320.178C763.957 312.042 753.433 307.377 741.933 307.377C730.759 307.377 719.91 311.716 713.184 320.178C706.783 327.99 704.179 337.32 703.962 348.06C704.179 358.367 706.674 368.239 713.184 375.942C719.91 384.512 730.65 388.744 741.933 388.744C753.216 388.744 763.848 384.512 770.683 375.942C776.975 368.348 779.579 358.584 779.796 348.06V345.456H745.188ZM805.84 309.004H792.822V387.116H807.902V336.126L843.703 387.116H856.722V309.004H841.75V359.994L805.84 309.004ZM873.002 309.004V387.116H887.756V309.004H873.002ZM955.013 309.004H891.004V323.759H915.631V387.116H930.386V323.759H955.013V309.004ZM963.726 309.004V387.116H978.48V309.004H963.726ZM1010.44 387.116H1032.47L1056.33 309.004H1041.15L1021.29 373.23L1001.76 309.004H986.576L1010.44 387.116ZM1116.59 323.759V309.004H1065.6V387.116H1116.59V372.362H1080.36V355.437H1110.08V340.683H1080.36V323.759H1116.59ZM621.795 408.004H606.824L581.546 459.862L556.268 408.004H541.296V486.116H556.268V439.574L578.942 486.116H584.15L606.824 439.466V486.116H621.795V408.004ZM690.13 422.759V408.004H639.14V486.116H690.13V471.362H653.894V454.437H683.62V439.683H653.894V422.759H690.13ZM761.767 408.004H697.758V422.759H722.385V486.116H737.139V422.759H761.767V408.004ZM815.862 486.116H831.05L807.183 408.004H785.159L761.292 486.116H776.48L780.169 473.965H812.065L815.862 486.116ZM784.4 460.079L796.008 421.891L807.834 460.079H784.4ZM920.818 408.004H905.847L880.569 459.862L855.291 408.004H840.319V486.116H855.291V439.574L877.965 486.116H883.173L905.847 439.466V486.116H920.818V408.004ZM971.686 487.744C982.535 487.744 993.275 483.621 1000.44 474.942C1006.84 467.131 1009.33 457.909 1009.55 447.06C1009.33 436.645 1007.05 427.098 1000.44 419.07C993.492 410.608 982.969 406.377 971.686 406.377C960.403 406.377 949.771 410.499 942.937 419.07C936.644 426.664 933.823 436.645 933.823 447.06C933.823 457.475 936.644 467.348 942.937 474.942C949.663 483.404 960.512 487.744 971.686 487.744ZM971.686 473.857C964.96 473.965 958.45 471.253 954.653 466.046C950.639 460.838 949.446 453.895 949.337 447.06C949.446 440.225 950.639 433.174 954.653 428.075C958.45 422.867 964.96 420.155 971.686 420.263C978.412 420.155 984.813 422.867 988.719 428.075C992.625 433.174 993.926 440.225 993.926 447.06C993.926 453.895 992.625 460.838 988.719 466.046C984.813 471.253 978.412 473.965 971.686 473.857ZM1079.21 449.121C1082.47 444.782 1084.53 439.249 1084.42 433.824C1084.31 428.4 1082.47 422.867 1079.21 418.527C1076.07 414.079 1071.4 410.825 1066.19 409.197C1063.7 408.438 1060.99 408.004 1058.27 408.004H1022.58V486.116H1037.34V459.536H1054.8L1067.71 486.116H1084.42L1070.1 456.716C1073.79 454.98 1076.93 452.268 1079.21 449.121ZM1037.34 421.891H1058.17C1061.2 421.891 1064.57 423.735 1066.63 426.122C1068.47 428.183 1069.34 431.004 1069.45 433.824C1069.56 436.428 1068.58 438.923 1067.06 440.985C1064.78 444.022 1061.09 445.758 1058.17 445.758H1037.34V421.891ZM1156.23 433.824C1156.12 428.4 1154.27 422.867 1151.02 418.527C1147.87 414.079 1143.21 410.825 1138 409.197C1135.5 408.438 1132.79 408.004 1130.08 408.004H1094.39V486.116H1109.14V459.536H1130.08C1138.65 459.536 1146.46 455.414 1151.02 449.121C1154.27 444.782 1156.33 439.249 1156.23 433.824ZM1138.87 440.985C1136.59 444.022 1132.9 445.758 1129.97 445.758H1109.14V421.891H1129.97C1133.01 421.891 1136.37 423.735 1138.43 426.122C1140.28 428.183 1141.15 431.004 1141.25 433.824C1141.36 436.428 1140.39 438.923 1138.87 440.985ZM1216.8 408.004V445.324H1181.86V408.004H1167.11V486.116H1181.86V460.079H1216.8V486.116H1231.55V408.004H1216.8ZM1282.41 487.744C1293.25 487.744 1304 483.621 1311.16 474.942C1317.56 467.131 1320.05 457.909 1320.27 447.06C1320.05 436.645 1317.77 427.098 1311.16 419.07C1304.21 410.608 1293.69 406.377 1282.41 406.377C1271.12 406.377 1260.49 410.499 1253.66 419.07C1247.36 426.664 1244.54 436.645 1244.54 447.06C1244.54 457.475 1247.36 467.348 1253.66 474.942C1260.38 483.404 1271.23 487.744 1282.41 487.744ZM1282.41 473.857C1275.68 473.965 1269.17 471.253 1265.37 466.046C1261.36 460.838 1260.17 453.895 1260.06 447.06C1260.17 440.225 1261.36 433.174 1265.37 428.075C1269.17 422.867 1275.68 420.155 1282.41 420.263C1289.13 420.155 1295.53 422.867 1299.44 428.075C1303.34 433.174 1304.65 440.225 1304.65 447.06C1304.65 453.895 1303.34 460.838 1299.44 466.046C1295.53 471.253 1289.13 473.965 1282.41 473.857ZM1391.34 427.858C1388.3 419.938 1383.1 413.754 1376.48 410.174C1371.27 407.353 1365.41 406.485 1360.1 406.377C1354.89 406.377 1349.25 406.811 1343.61 409.414C1336.45 412.669 1330.91 420.046 1330.91 428.617C1330.91 434.041 1332.98 439.9 1337.64 443.805C1341.44 447.169 1346.75 449.447 1352.61 451.074L1367.15 455.305C1370.19 456.173 1372.36 457.258 1374.09 458.777C1375.72 460.187 1376.48 462.14 1376.48 464.201C1376.48 466.371 1375.83 468.758 1373.33 470.602C1370.51 472.772 1365.3 473.965 1361.18 473.965C1355.97 473.965 1349.9 472.013 1346.75 467.673C1344.8 465.286 1343.5 461.815 1342.85 458.018L1327.88 462.032C1329.07 467.131 1331.13 472.555 1334.93 477.22C1341.33 485.031 1350.22 487.744 1360.64 487.744C1368.89 487.744 1376.05 486.767 1382.01 482.753C1388.2 478.63 1392.1 471.47 1392.1 464.635C1392.1 458.235 1389.5 452.485 1384.83 448.037C1381.36 444.782 1377.35 442.721 1370.4 440.659L1356.84 436.754C1352.94 435.56 1349.36 434.15 1347.95 432.631C1346.97 431.655 1346.43 430.353 1346.43 428.942C1346.43 426.556 1347.73 424.06 1350.44 422.433C1352.72 421.023 1356.19 420.155 1359.88 420.263C1363.46 420.263 1366.61 421.565 1369.1 423.084C1372.79 425.254 1374.42 427.966 1376.37 431.872L1391.34 427.858ZM1402.9 408.004V486.116H1417.66V408.004H1402.9ZM1491.93 427.858C1488.89 419.938 1483.69 413.754 1477.07 410.174C1471.86 407.353 1466 406.485 1460.69 406.377C1455.48 406.377 1449.84 406.811 1444.2 409.414C1437.04 412.669 1431.5 420.046 1431.5 428.617C1431.5 434.041 1433.56 439.9 1438.23 443.805C1442.03 447.169 1447.34 449.447 1453.2 451.074L1467.74 455.305C1470.78 456.173 1472.95 457.258 1474.68 458.777C1476.31 460.187 1477.07 462.14 1477.07 464.201C1477.07 466.371 1476.42 468.758 1473.92 470.602C1471.1 472.772 1465.89 473.965 1461.77 473.965C1456.56 473.965 1450.49 472.013 1447.34 467.673C1445.39 465.286 1444.09 461.815 1443.44 458.018L1428.47 462.032C1429.66 467.131 1431.72 472.555 1435.52 477.22C1441.92 485.031 1450.81 487.744 1461.23 487.744C1469.47 487.744 1476.64 486.767 1482.6 482.753C1488.79 478.63 1492.69 471.47 1492.69 464.635C1492.69 458.235 1490.09 452.485 1485.42 448.037C1481.95 444.782 1477.94 442.721 1470.99 440.659L1457.43 436.754C1453.53 435.56 1449.95 434.15 1448.54 432.631C1447.56 431.655 1447.02 430.353 1447.02 428.942C1447.02 426.556 1448.32 424.06 1451.03 422.433C1453.31 421.023 1456.78 420.155 1460.47 420.263C1464.05 420.263 1467.2 421.565 1469.69 423.084C1473.38 425.254 1475.01 427.966 1476.96 431.872L1491.93 427.858Z" fill="#B5F3FF"/>
<g filter="url(#filter0_f_806_3396)">
<mask id="path-2-inside-1_806_3396" fill="white">
<path fill-rule="evenodd" clip-rule="evenodd" d="M211.762 259.79L130.294 254.477L154.498 394.98L206.449 421.546L187.558 487.665L200.546 526.628L252.497 541.387L266.075 523.031L274.03 512.276L292.928 485.33L298.624 465.064V456.958L296.183 451.284L289.673 442.367L285.604 436.692L283.163 429.397L282.349 418.858V411.563L284.791 402.646L288.859 396.161L293.742 390.486L302.693 384.001L310.83 381.569L316.526 380.759L325.477 379.948L334.428 380.759L341.751 384.001L348.261 388.054L352.33 392.918L355.585 397.782L358.026 403.456L359.653 409.131V413.184L358.84 416.426L358.026 420.48L361.281 426.154L366.977 435.071V437.503L360.467 440.745V441.556L362.095 445.609V447.23L360.467 448.42L362.095 450.473L358.84 453.715L359.653 459.39V461.822L358.026 463.443L355.585 464.254H348.261L340.124 465.064L337.683 466.686L336.869 469.117V478.034L338.497 485.33L360.874 514.918L363.768 519.071L381.193 541.387L386.506 539.878L433.144 526.628L446.132 487.665L427.24 421.546L479.191 394.98L503.396 254.477L421.927 259.79L371.747 305.837L334.296 341.848L325.7 350.113L316.845 365.462L307.99 350.113L299.394 341.848L261.942 305.837L211.762 259.79Z"/>
</mask>
<path fill-rule="evenodd" clip-rule="evenodd" d="M211.762 259.79L130.294 254.477L154.498 394.98L206.449 421.546L187.558 487.665L200.546 526.628L252.497 541.387L266.075 523.031L274.03 512.276L292.928 485.33L298.624 465.064V456.958L296.183 451.284L289.673 442.367L285.604 436.692L283.163 429.397L282.349 418.858V411.563L284.791 402.646L288.859 396.161L293.742 390.486L302.693 384.001L310.83 381.569L316.526 380.759L325.477 379.948L334.428 380.759L341.751 384.001L348.261 388.054L352.33 392.918L355.585 397.782L358.026 403.456L359.653 409.131V413.184L358.84 416.426L358.026 420.48L361.281 426.154L366.977 435.071V437.503L360.467 440.745V441.556L362.095 445.609V447.23L360.467 448.42L362.095 450.473L358.84 453.715L359.653 459.39V461.822L358.026 463.443L355.585 464.254H348.261L340.124 465.064L337.683 466.686L336.869 469.117V478.034L338.497 485.33L360.874 514.918L363.768 519.071L381.193 541.387L386.506 539.878L433.144 526.628L446.132 487.665L427.24 421.546L479.191 394.98L503.396 254.477L421.927 259.79L371.747 305.837L334.296 341.848L325.7 350.113L316.845 365.462L307.99 350.113L299.394 341.848L261.942 305.837L211.762 259.79Z" fill="url(#paint0_linear_806_3396)" fill-opacity="0.39"/>
<path d="M130.294 254.477L130.371 253.298L128.876 253.201L129.13 254.677L130.294 254.477ZM211.762 259.79L212.561 258.92L212.254 258.639L211.839 258.612L211.762 259.79ZM154.498 394.98L153.335 395.18L153.435 395.762L153.961 396.031L154.498 394.98ZM206.449 421.546L207.584 421.87L207.851 420.937L206.987 420.495L206.449 421.546ZM187.558 487.665L186.423 487.341L186.322 487.692L186.438 488.038L187.558 487.665ZM200.546 526.628L199.426 527.002L199.623 527.594L200.223 527.764L200.546 526.628ZM252.497 541.387L252.174 542.523L252.96 542.746L253.446 542.089L252.497 541.387ZM266.075 523.031L265.126 522.329L266.075 523.031ZM274.03 512.276L274.98 512.979L274.989 512.967L274.997 512.954L274.03 512.276ZM292.928 485.33L293.894 486.008L294.01 485.843L294.064 485.65L292.928 485.33ZM298.624 465.064L299.761 465.384L299.805 465.227V465.064H298.624ZM298.624 456.958H299.805V456.715L299.708 456.491L298.624 456.958ZM296.183 451.284L297.267 450.817L297.215 450.695L297.136 450.587L296.183 451.284ZM289.673 442.367L288.713 443.055L288.719 443.063L289.673 442.367ZM285.604 436.692L284.485 437.067L284.541 437.236L284.645 437.38L285.604 436.692ZM283.163 429.397L281.986 429.487L281.997 429.633L282.043 429.771L283.163 429.397ZM282.349 418.858H281.169V418.904L281.172 418.949L282.349 418.858ZM282.349 411.563L281.211 411.251L281.169 411.404V411.563H282.349ZM284.791 402.646L283.79 402.018L283.698 402.166L283.652 402.334L284.791 402.646ZM288.859 396.161L287.964 395.391L287.906 395.458L287.859 395.533L288.859 396.161ZM293.742 390.486L293.049 389.53L292.937 389.611L292.847 389.716L293.742 390.486ZM302.693 384.001L302.354 382.87L302.162 382.927L302 383.045L302.693 384.001ZM310.83 381.569L310.663 380.4L310.576 380.413L310.492 380.438L310.83 381.569ZM316.526 380.759L316.419 379.583L316.389 379.586L316.36 379.59L316.526 380.759ZM325.477 379.948L325.583 378.772L325.477 378.763L325.37 378.772L325.477 379.948ZM334.428 380.759L334.906 379.679L334.728 379.6L334.534 379.583L334.428 380.759ZM341.751 384.001L342.375 382.999L342.305 382.955L342.229 382.922L341.751 384.001ZM348.261 388.054L349.167 387.297L349.046 387.152L348.885 387.052L348.261 388.054ZM352.33 392.918L353.311 392.262L353.276 392.209L353.235 392.161L352.33 392.918ZM355.585 397.782L356.669 397.315L356.626 397.216L356.566 397.125L355.585 397.782ZM358.026 403.456L359.161 403.131L359.14 403.059L359.111 402.99L358.026 403.456ZM359.653 409.131H360.834V408.965L360.788 408.805L359.653 409.131ZM359.653 413.184L360.799 413.471L360.834 413.33V413.184H359.653ZM358.84 416.426L357.694 416.139L357.688 416.166L357.682 416.194L358.84 416.426ZM358.026 420.48L356.868 420.247L356.781 420.682L357.002 421.067L358.026 420.48ZM361.281 426.154L360.257 426.742L360.271 426.766L360.286 426.79L361.281 426.154ZM366.977 435.071H368.158V434.726L367.972 434.435L366.977 435.071ZM366.977 437.503L367.503 438.56L368.158 438.234V437.503H366.977ZM360.467 440.745L359.941 439.689L359.286 440.014V440.745H360.467ZM360.467 441.556H359.286V441.784L359.371 441.996L360.467 441.556ZM362.095 445.609H363.275V445.381L363.19 445.169L362.095 445.609ZM362.095 447.23L362.791 448.184L363.275 447.83V447.23H362.095ZM360.467 448.42L359.77 447.467L358.779 448.192L359.542 449.154L360.467 448.42ZM362.095 450.473L362.928 451.309L363.675 450.565L363.02 449.739L362.095 450.473ZM358.84 453.715L358.006 452.879L357.587 453.297L357.671 453.883L358.84 453.715ZM359.653 459.39H360.834V459.306L360.822 459.222L359.653 459.39ZM359.653 461.822L360.487 462.658L360.834 462.312V461.822H359.653ZM358.026 463.443L358.398 464.564L358.662 464.476L358.859 464.28L358.026 463.443ZM355.585 464.254V465.434H355.776L355.957 465.374L355.585 464.254ZM348.261 464.254V463.073H348.203L348.144 463.079L348.261 464.254ZM340.124 465.064L340.007 463.889L339.715 463.919L339.471 464.081L340.124 465.064ZM337.683 466.686L337.03 465.702L336.692 465.926L336.563 466.311L337.683 466.686ZM336.869 469.117L335.749 468.743L335.688 468.925V469.117H336.869ZM336.869 478.034H335.688V478.165L335.717 478.291L336.869 478.034ZM338.497 485.33L337.344 485.587L337.4 485.838L337.555 486.042L338.497 485.33ZM360.874 514.918L361.843 514.243L361.83 514.224L361.816 514.206L360.874 514.918ZM363.768 519.071L362.8 519.746L362.818 519.773L362.838 519.798L363.768 519.071ZM381.193 541.387L380.262 542.114L380.751 542.74L381.516 542.523L381.193 541.387ZM386.506 539.878L386.184 538.742L386.506 539.878ZM433.144 526.628L433.467 527.764L434.067 527.594L434.264 527.002L433.144 526.628ZM446.132 487.665L447.252 488.038L447.367 487.692L447.267 487.341L446.132 487.665ZM427.24 421.546L426.703 420.495L425.838 420.937L426.105 421.87L427.24 421.546ZM479.191 394.98L479.729 396.031L480.255 395.762L480.355 395.18L479.191 394.98ZM503.396 254.477L504.559 254.677L504.813 253.201L503.319 253.298L503.396 254.477ZM421.927 259.79L421.85 258.612L421.435 258.639L421.129 258.92L421.927 259.79ZM371.747 305.837L370.949 304.967L370.939 304.976L370.929 304.986L371.747 305.837ZM334.296 341.848L333.477 340.997H333.477L334.296 341.848ZM325.7 350.113L324.882 349.262L324.761 349.378L324.677 349.523L325.7 350.113ZM316.845 365.462L315.822 366.053L316.845 367.825L317.867 366.053L316.845 365.462ZM307.99 350.113L309.012 349.523L308.929 349.378L308.808 349.262L307.99 350.113ZM299.394 341.848L298.576 342.7L299.394 341.848ZM261.942 305.837L262.761 304.986L262.751 304.976L262.74 304.967L261.942 305.837ZM130.217 255.655L211.686 260.968L211.839 258.612L130.371 253.298L130.217 255.655ZM155.662 394.78L131.458 254.276L129.13 254.677L153.335 395.18L155.662 394.78ZM206.987 420.495L155.036 393.929L153.961 396.031L205.912 422.597L206.987 420.495ZM188.693 487.989L207.584 421.87L205.314 421.221L186.423 487.341L188.693 487.989ZM201.666 526.255L188.678 487.292L186.438 488.038L199.426 527.002L201.666 526.255ZM252.819 540.251L200.868 525.492L200.223 527.764L252.174 542.523L252.819 540.251ZM265.126 522.329L251.547 540.685L253.446 542.089L267.024 523.733L265.126 522.329ZM273.081 511.574L265.126 522.329L267.024 523.733L274.98 512.979L273.081 511.574ZM274.997 512.954L293.894 486.008L291.961 484.652L273.064 511.598L274.997 512.954ZM294.064 485.65L299.761 465.384L297.487 464.745L291.791 485.011L294.064 485.65ZM299.805 465.064V456.958H297.443V465.064H299.805ZM299.708 456.491L297.267 450.817L295.098 451.75L297.539 457.425L299.708 456.491ZM297.136 450.587L290.627 441.67L288.719 443.063L295.229 451.98L297.136 450.587ZM290.632 441.679L286.564 436.004L284.645 437.38L288.713 443.055L290.632 441.679ZM286.724 436.318L284.283 429.022L282.043 429.771L284.485 437.067L286.724 436.318ZM284.34 429.306L283.527 418.767L281.172 418.949L281.986 429.487L284.34 429.306ZM283.53 418.858V411.563H281.169V418.858H283.53ZM283.488 411.874L285.929 402.958L283.652 402.334L281.211 411.251L283.488 411.874ZM285.791 403.273L289.859 396.788L287.859 395.533L283.79 402.018L285.791 403.273ZM289.754 396.931L294.637 391.256L292.847 389.716L287.964 395.391L289.754 396.931ZM294.434 391.442L303.385 384.957L302 383.045L293.049 389.53L294.434 391.442ZM303.031 385.132L311.168 382.701L310.492 380.438L302.354 382.87L303.031 385.132ZM310.996 382.738L316.692 381.928L316.36 379.59L310.663 380.4L310.996 382.738ZM316.632 381.935L325.583 381.124L325.37 378.772L316.419 379.583L316.632 381.935ZM325.37 381.124L334.321 381.935L334.534 379.583L325.583 378.772L325.37 381.124ZM333.95 381.838L341.273 385.081L342.229 382.922L334.906 379.679L333.95 381.838ZM341.127 385.004L347.637 389.057L348.885 387.052L342.375 382.999L341.127 385.004ZM347.356 388.812L351.424 393.676L353.235 392.161L349.167 387.297L347.356 388.812ZM351.349 393.575L354.604 398.439L356.566 397.125L353.311 392.262L351.349 393.575ZM354.5 398.249L356.941 403.923L359.111 402.99L356.669 397.315L354.5 398.249ZM356.891 403.782L358.518 409.456L360.788 408.805L359.161 403.131L356.891 403.782ZM358.473 409.131V413.184H360.834V409.131H358.473ZM358.508 412.897L357.694 416.139L359.985 416.714L360.799 413.471L358.508 412.897ZM357.682 416.194L356.868 420.247L359.184 420.712L359.997 416.659L357.682 416.194ZM357.002 421.067L360.257 426.742L362.305 425.567L359.05 419.892L357.002 421.067ZM360.286 426.79L365.982 435.707L367.972 434.435L362.276 425.518L360.286 426.79ZM365.796 435.071V437.503H368.158V435.071H365.796ZM366.451 436.446L359.941 439.689L360.994 441.802L367.503 438.56L366.451 436.446ZM359.286 440.745V441.556H361.648V440.745H359.286ZM359.371 441.996L360.999 446.049L363.19 445.169L361.563 441.116L359.371 441.996ZM360.914 445.609V447.23H363.275V445.609H360.914ZM361.398 446.277L359.77 447.467L361.164 449.373L362.791 448.184L361.398 446.277ZM359.542 449.154L361.169 451.206L363.02 449.739L361.392 447.687L359.542 449.154ZM361.261 449.636L358.006 452.879L359.673 454.552L362.928 451.309L361.261 449.636ZM357.671 453.883L358.485 459.558L360.822 459.222L360.008 453.548L357.671 453.883ZM358.473 459.39V461.822H360.834V459.39H358.473ZM358.82 460.985L357.193 462.607L358.859 464.28L360.487 462.658L358.82 460.985ZM357.654 462.323L355.213 463.133L355.957 465.374L358.398 464.564L357.654 462.323ZM355.585 463.073H348.261V465.434H355.585V463.073ZM348.144 463.079L340.007 463.889L340.241 466.239L348.378 465.429L348.144 463.079ZM339.471 464.081L337.03 465.702L338.336 467.669L340.777 466.048L339.471 464.081ZM336.563 466.311L335.749 468.743L337.989 469.492L338.802 467.06L336.563 466.311ZM335.688 469.117V478.034H338.05V469.117H335.688ZM335.717 478.291L337.344 485.587L339.649 485.073L338.021 477.777L335.717 478.291ZM337.555 486.042L359.932 515.63L361.816 514.206L339.438 484.618L337.555 486.042ZM359.905 515.593L362.8 519.746L364.737 518.396L361.843 514.243L359.905 515.593ZM382.124 540.66L364.699 518.345L362.838 519.798L380.262 542.114L382.124 540.66ZM386.184 538.742L380.87 540.251L381.516 542.523L386.829 541.013L386.184 538.742ZM432.821 525.492L386.184 538.742L386.829 541.013L433.467 527.764L432.821 525.492ZM445.011 487.292L432.024 526.255L434.264 527.002L447.252 488.038L445.011 487.292ZM426.105 421.87L444.996 487.989L447.267 487.341L428.376 421.221L426.105 421.87ZM478.654 393.929L426.703 420.495L427.778 422.597L479.729 396.031L478.654 393.929ZM502.232 254.276L478.028 394.78L480.355 395.18L504.559 254.677L502.232 254.276ZM422.004 260.968L503.472 255.655L503.319 253.298L421.85 258.612L422.004 260.968ZM372.546 306.707L422.726 260.66L421.129 258.92L370.949 304.967L372.546 306.707ZM335.114 342.7L372.566 306.688L370.929 304.986L333.477 340.997L335.114 342.7ZM326.518 350.964L335.114 342.7L333.477 340.997L324.882 349.262L326.518 350.964ZM317.867 366.053L326.723 350.703L324.677 349.523L315.822 364.872L317.867 366.053ZM306.967 350.703L315.822 366.053L317.867 364.872L309.012 349.523L306.967 350.703ZM298.576 342.7L307.171 350.964L308.808 349.262L300.212 340.997L298.576 342.7ZM261.124 306.688L298.576 342.7L300.212 340.997L262.761 304.986L261.124 306.688ZM210.964 260.66L261.144 306.707L262.74 304.967L212.561 258.92L210.964 260.66Z" fill="#65E6FF" mask="url(#path-2-inside-1_806_3396)"/>
</g>
<g filter="url(#filter1_f_806_3396)">
<mask id="path-4-inside-2_806_3396" fill="white">
<path fill-rule="evenodd" clip-rule="evenodd" d="M211.762 259.79L130.294 254.477L154.498 394.98L206.449 421.546L187.558 487.665L200.546 526.628L252.497 541.387L266.075 523.031L274.03 512.276L292.928 485.33L298.624 465.064V456.958L296.183 451.284L289.673 442.367L285.604 436.692L283.163 429.397L282.349 418.858V411.563L284.791 402.646L288.859 396.161L293.742 390.486L302.693 384.001L310.83 381.569L316.526 380.759L325.477 379.948L334.428 380.759L341.751 384.001L348.261 388.054L352.33 392.918L355.585 397.782L358.026 403.456L359.653 409.131V413.184L358.84 416.426L358.026 420.48L361.281 426.154L366.977 435.071V437.503L360.467 440.745V441.556L362.095 445.609V447.23L360.467 448.42L362.095 450.473L358.84 453.715L359.653 459.39V461.822L358.026 463.443L355.585 464.254H348.261L340.124 465.064L337.683 466.686L336.869 469.117V478.034L338.497 485.33L360.874 514.918L363.768 519.071L381.193 541.387L386.506 539.878L433.144 526.628L446.132 487.665L427.24 421.546L479.191 394.98L503.396 254.477L421.927 259.79L371.747 305.837L334.296 341.848L325.7 350.113L316.845 365.462L307.99 350.113L299.394 341.848L261.942 305.837L211.762 259.79Z"/>
</mask>
<path fill-rule="evenodd" clip-rule="evenodd" d="M211.762 259.79L130.294 254.477L154.498 394.98L206.449 421.546L187.558 487.665L200.546 526.628L252.497 541.387L266.075 523.031L274.03 512.276L292.928 485.33L298.624 465.064V456.958L296.183 451.284L289.673 442.367L285.604 436.692L283.163 429.397L282.349 418.858V411.563L284.791 402.646L288.859 396.161L293.742 390.486L302.693 384.001L310.83 381.569L316.526 380.759L325.477 379.948L334.428 380.759L341.751 384.001L348.261 388.054L352.33 392.918L355.585 397.782L358.026 403.456L359.653 409.131V413.184L358.84 416.426L358.026 420.48L361.281 426.154L366.977 435.071V437.503L360.467 440.745V441.556L362.095 445.609V447.23L360.467 448.42L362.095 450.473L358.84 453.715L359.653 459.39V461.822L358.026 463.443L355.585 464.254H348.261L340.124 465.064L337.683 466.686L336.869 469.117V478.034L338.497 485.33L360.874 514.918L363.768 519.071L381.193 541.387L386.506 539.878L433.144 526.628L446.132 487.665L427.24 421.546L479.191 394.98L503.396 254.477L421.927 259.79L371.747 305.837L334.296 341.848L325.7 350.113L316.845 365.462L307.99 350.113L299.394 341.848L261.942 305.837L211.762 259.79Z" fill="url(#paint1_linear_806_3396)" fill-opacity="0.6"/>
<path d="M130.294 254.477L130.371 253.298L128.876 253.201L129.13 254.677L130.294 254.477ZM211.762 259.79L212.561 258.92L212.254 258.639L211.839 258.612L211.762 259.79ZM154.498 394.98L153.335 395.18L153.435 395.762L153.961 396.031L154.498 394.98ZM206.449 421.546L207.584 421.87L207.851 420.937L206.987 420.495L206.449 421.546ZM187.558 487.665L186.423 487.341L186.322 487.692L186.438 488.038L187.558 487.665ZM200.546 526.628L199.426 527.002L199.623 527.594L200.223 527.764L200.546 526.628ZM252.497 541.387L252.174 542.523L252.96 542.746L253.446 542.089L252.497 541.387ZM266.075 523.031L265.126 522.329L266.075 523.031ZM274.03 512.276L274.98 512.979L274.989 512.967L274.997 512.954L274.03 512.276ZM292.928 485.33L293.894 486.008L294.01 485.843L294.064 485.65L292.928 485.33ZM298.624 465.064L299.761 465.384L299.805 465.227V465.064H298.624ZM298.624 456.958H299.805V456.715L299.708 456.491L298.624 456.958ZM296.183 451.284L297.267 450.817L297.215 450.695L297.136 450.587L296.183 451.284ZM289.673 442.367L288.713 443.055L288.719 443.063L289.673 442.367ZM285.604 436.692L284.485 437.067L284.541 437.236L284.645 437.38L285.604 436.692ZM283.163 429.397L281.986 429.487L281.997 429.633L282.043 429.771L283.163 429.397ZM282.349 418.858H281.169V418.904L281.172 418.949L282.349 418.858ZM282.349 411.563L281.211 411.251L281.169 411.404V411.563H282.349ZM284.791 402.646L283.79 402.018L283.698 402.166L283.652 402.334L284.791 402.646ZM288.859 396.161L287.964 395.391L287.906 395.458L287.859 395.533L288.859 396.161ZM293.742 390.486L293.049 389.53L292.937 389.611L292.847 389.716L293.742 390.486ZM302.693 384.001L302.354 382.87L302.162 382.927L302 383.045L302.693 384.001ZM310.83 381.569L310.663 380.4L310.576 380.413L310.492 380.438L310.83 381.569ZM316.526 380.759L316.419 379.583L316.389 379.586L316.36 379.59L316.526 380.759ZM325.477 379.948L325.583 378.772L325.477 378.763L325.37 378.772L325.477 379.948ZM334.428 380.759L334.906 379.679L334.728 379.6L334.534 379.583L334.428 380.759ZM341.751 384.001L342.375 382.999L342.305 382.955L342.229 382.922L341.751 384.001ZM348.261 388.054L349.167 387.297L349.046 387.152L348.885 387.052L348.261 388.054ZM352.33 392.918L353.311 392.262L353.276 392.209L353.235 392.161L352.33 392.918ZM355.585 397.782L356.669 397.315L356.626 397.216L356.566 397.125L355.585 397.782ZM358.026 403.456L359.161 403.131L359.14 403.059L359.111 402.99L358.026 403.456ZM359.653 409.131H360.834V408.965L360.788 408.805L359.653 409.131ZM359.653 413.184L360.799 413.471L360.834 413.33V413.184H359.653ZM358.84 416.426L357.694 416.139L357.688 416.166L357.682 416.194L358.84 416.426ZM358.026 420.48L356.868 420.247L356.781 420.682L357.002 421.067L358.026 420.48ZM361.281 426.154L360.257 426.742L360.271 426.766L360.286 426.79L361.281 426.154ZM366.977 435.071H368.158V434.726L367.972 434.435L366.977 435.071ZM366.977 437.503L367.503 438.56L368.158 438.234V437.503H366.977ZM360.467 440.745L359.941 439.689L359.286 440.014V440.745H360.467ZM360.467 441.556H359.286V441.784L359.371 441.996L360.467 441.556ZM362.095 445.609H363.275V445.381L363.19 445.169L362.095 445.609ZM362.095 447.23L362.791 448.184L363.275 447.83V447.23H362.095ZM360.467 448.42L359.77 447.467L358.779 448.192L359.542 449.154L360.467 448.42ZM362.095 450.473L362.928 451.309L363.675 450.565L363.02 449.739L362.095 450.473ZM358.84 453.715L358.006 452.879L357.587 453.297L357.671 453.883L358.84 453.715ZM359.653 459.39H360.834V459.306L360.822 459.222L359.653 459.39ZM359.653 461.822L360.487 462.658L360.834 462.312V461.822H359.653ZM358.026 463.443L358.398 464.564L358.662 464.476L358.859 464.28L358.026 463.443ZM355.585 464.254V465.434H355.776L355.957 465.374L355.585 464.254ZM348.261 464.254V463.073H348.203L348.144 463.079L348.261 464.254ZM340.124 465.064L340.007 463.889L339.715 463.919L339.471 464.081L340.124 465.064ZM337.683 466.686L337.03 465.702L336.692 465.926L336.563 466.311L337.683 466.686ZM336.869 469.117L335.749 468.743L335.688 468.925V469.117H336.869ZM336.869 478.034H335.688V478.165L335.717 478.291L336.869 478.034ZM338.497 485.33L337.344 485.587L337.4 485.838L337.555 486.042L338.497 485.33ZM360.874 514.918L361.843 514.243L361.83 514.224L361.816 514.206L360.874 514.918ZM363.768 519.071L362.8 519.746L362.818 519.773L362.838 519.798L363.768 519.071ZM381.193 541.387L380.262 542.114L380.751 542.74L381.516 542.523L381.193 541.387ZM386.506 539.878L386.184 538.742L386.506 539.878ZM433.144 526.628L433.467 527.764L434.067 527.594L434.264 527.002L433.144 526.628ZM446.132 487.665L447.252 488.038L447.367 487.692L447.267 487.341L446.132 487.665ZM427.24 421.546L426.703 420.495L425.838 420.937L426.105 421.87L427.24 421.546ZM479.191 394.98L479.729 396.031L480.255 395.762L480.355 395.18L479.191 394.98ZM503.396 254.477L504.559 254.677L504.813 253.201L503.319 253.298L503.396 254.477ZM421.927 259.79L421.85 258.612L421.435 258.639L421.129 258.92L421.927 259.79ZM371.747 305.837L370.949 304.967L370.939 304.976L370.929 304.986L371.747 305.837ZM334.296 341.848L333.477 340.997H333.477L334.296 341.848ZM325.7 350.113L324.882 349.262L324.761 349.378L324.677 349.523L325.7 350.113ZM316.845 365.462L315.822 366.053L316.845 367.825L317.867 366.053L316.845 365.462ZM307.99 350.113L309.012 349.523L308.929 349.378L308.808 349.262L307.99 350.113ZM299.394 341.848L298.576 342.7L299.394 341.848ZM261.942 305.837L262.761 304.986L262.751 304.976L262.74 304.967L261.942 305.837ZM130.217 255.655L211.686 260.968L211.839 258.612L130.371 253.298L130.217 255.655ZM155.662 394.78L131.458 254.276L129.13 254.677L153.335 395.18L155.662 394.78ZM206.987 420.495L155.036 393.929L153.961 396.031L205.912 422.597L206.987 420.495ZM188.693 487.989L207.584 421.87L205.314 421.221L186.423 487.341L188.693 487.989ZM201.666 526.255L188.678 487.292L186.438 488.038L199.426 527.002L201.666 526.255ZM252.819 540.251L200.868 525.492L200.223 527.764L252.174 542.523L252.819 540.251ZM265.126 522.329L251.547 540.685L253.446 542.089L267.024 523.733L265.126 522.329ZM273.081 511.574L265.126 522.329L267.024 523.733L274.98 512.979L273.081 511.574ZM274.997 512.954L293.894 486.008L291.961 484.652L273.064 511.598L274.997 512.954ZM294.064 485.65L299.761 465.384L297.487 464.745L291.791 485.011L294.064 485.65ZM299.805 465.064V456.958H297.443V465.064H299.805ZM299.708 456.491L297.267 450.817L295.098 451.75L297.539 457.425L299.708 456.491ZM297.136 450.587L290.627 441.67L288.719 443.063L295.229 451.98L297.136 450.587ZM290.632 441.679L286.564 436.004L284.645 437.38L288.713 443.055L290.632 441.679ZM286.724 436.318L284.283 429.022L282.043 429.771L284.485 437.067L286.724 436.318ZM284.34 429.306L283.527 418.767L281.172 418.949L281.986 429.487L284.34 429.306ZM283.53 418.858V411.563H281.169V418.858H283.53ZM283.488 411.874L285.929 402.958L283.652 402.334L281.211 411.251L283.488 411.874ZM285.791 403.273L289.859 396.788L287.859 395.533L283.79 402.018L285.791 403.273ZM289.754 396.931L294.637 391.256L292.847 389.716L287.964 395.391L289.754 396.931ZM294.434 391.442L303.385 384.957L302 383.045L293.049 389.53L294.434 391.442ZM303.031 385.132L311.168 382.701L310.492 380.438L302.354 382.87L303.031 385.132ZM310.996 382.738L316.692 381.928L316.36 379.59L310.663 380.4L310.996 382.738ZM316.632 381.935L325.583 381.124L325.37 378.772L316.419 379.583L316.632 381.935ZM325.37 381.124L334.321 381.935L334.534 379.583L325.583 378.772L325.37 381.124ZM333.95 381.838L341.273 385.081L342.229 382.922L334.906 379.679L333.95 381.838ZM341.127 385.004L347.637 389.057L348.885 387.052L342.375 382.999L341.127 385.004ZM347.356 388.812L351.424 393.676L353.235 392.161L349.167 387.297L347.356 388.812ZM351.349 393.575L354.604 398.439L356.566 397.125L353.311 392.262L351.349 393.575ZM354.5 398.249L356.941 403.923L359.111 402.99L356.669 397.315L354.5 398.249ZM356.891 403.782L358.518 409.456L360.788 408.805L359.161 403.131L356.891 403.782ZM358.473 409.131V413.184H360.834V409.131H358.473ZM358.508 412.897L357.694 416.139L359.985 416.714L360.799 413.471L358.508 412.897ZM357.682 416.194L356.868 420.247L359.184 420.712L359.997 416.659L357.682 416.194ZM357.002 421.067L360.257 426.742L362.305 425.567L359.05 419.892L357.002 421.067ZM360.286 426.79L365.982 435.707L367.972 434.435L362.276 425.518L360.286 426.79ZM365.796 435.071V437.503H368.158V435.071H365.796ZM366.451 436.446L359.941 439.689L360.994 441.802L367.503 438.56L366.451 436.446ZM359.286 440.745V441.556H361.648V440.745H359.286ZM359.371 441.996L360.999 446.049L363.19 445.169L361.563 441.116L359.371 441.996ZM360.914 445.609V447.23H363.275V445.609H360.914ZM361.398 446.277L359.77 447.467L361.164 449.373L362.791 448.184L361.398 446.277ZM359.542 449.154L361.169 451.206L363.02 449.739L361.392 447.687L359.542 449.154ZM361.261 449.636L358.006 452.879L359.673 454.552L362.928 451.309L361.261 449.636ZM357.671 453.883L358.485 459.558L360.822 459.222L360.008 453.548L357.671 453.883ZM358.473 459.39V461.822H360.834V459.39H358.473ZM358.82 460.985L357.193 462.607L358.859 464.28L360.487 462.658L358.82 460.985ZM357.654 462.323L355.213 463.133L355.957 465.374L358.398 464.564L357.654 462.323ZM355.585 463.073H348.261V465.434H355.585V463.073ZM348.144 463.079L340.007 463.889L340.241 466.239L348.378 465.429L348.144 463.079ZM339.471 464.081L337.03 465.702L338.336 467.669L340.777 466.048L339.471 464.081ZM336.563 466.311L335.749 468.743L337.989 469.492L338.802 467.06L336.563 466.311ZM335.688 469.117V478.034H338.05V469.117H335.688ZM335.717 478.291L337.344 485.587L339.649 485.073L338.021 477.777L335.717 478.291ZM337.555 486.042L359.932 515.63L361.816 514.206L339.438 484.618L337.555 486.042ZM359.905 515.593L362.8 519.746L364.737 518.396L361.843 514.243L359.905 515.593ZM382.124 540.66L364.699 518.345L362.838 519.798L380.262 542.114L382.124 540.66ZM386.184 538.742L380.87 540.251L381.516 542.523L386.829 541.013L386.184 538.742ZM432.821 525.492L386.184 538.742L386.829 541.013L433.467 527.764L432.821 525.492ZM445.011 487.292L432.024 526.255L434.264 527.002L447.252 488.038L445.011 487.292ZM426.105 421.87L444.996 487.989L447.267 487.341L428.376 421.221L426.105 421.87ZM478.654 393.929L426.703 420.495L427.778 422.597L479.729 396.031L478.654 393.929ZM502.232 254.276L478.028 394.78L480.355 395.18L504.559 254.677L502.232 254.276ZM422.004 260.968L503.472 255.655L503.319 253.298L421.85 258.612L422.004 260.968ZM372.546 306.707L422.726 260.66L421.129 258.92L370.949 304.967L372.546 306.707ZM335.114 342.7L372.566 306.688L370.929 304.986L333.477 340.997L335.114 342.7ZM326.518 350.964L335.114 342.7L333.477 340.997L324.882 349.262L326.518 350.964ZM317.867 366.053L326.723 350.703L324.677 349.523L315.822 364.872L317.867 366.053ZM306.967 350.703L315.822 366.053L317.867 364.872L309.012 349.523L306.967 350.703ZM298.576 342.7L307.171 350.964L308.808 349.262L300.212 340.997L298.576 342.7ZM261.124 306.688L298.576 342.7L300.212 340.997L262.761 304.986L261.124 306.688ZM210.964 260.66L261.144 306.707L262.74 304.967L212.561 258.92L210.964 260.66Z" fill="#65E6FF" mask="url(#path-4-inside-2_806_3396)"/>
</g>
<mask id="path-6-inside-3_806_3396" fill="white">
<path fill-rule="evenodd" clip-rule="evenodd" d="M421.553 260.134C421.796 259.911 422.107 259.778 422.436 259.757L501.565 254.596C502.499 254.535 503.244 255.363 503.085 256.285L479.315 394.267C479.238 394.716 478.953 395.102 478.548 395.309L428.3 421.004C427.685 421.319 427.378 422.025 427.568 422.689L446.009 487.235C446.09 487.515 446.083 487.813 445.991 488.09L433.386 525.903C433.235 526.357 432.869 526.706 432.409 526.837L386.507 539.877L382.13 541.121C381.564 541.282 380.957 541.084 380.595 540.62L363.779 519.083L360.875 514.917L341.49 489.285C339.518 486.678 338.129 483.678 337.417 480.487C337.053 478.856 336.87 477.19 336.87 475.518V469.941C336.87 469.395 336.958 468.852 337.132 468.334L337.144 468.297C337.494 467.252 338.182 466.353 339.1 465.743C339.773 465.296 340.545 465.021 341.349 464.941L348.262 464.252H354.539C355.232 464.252 355.921 464.141 356.579 463.922L357.238 463.704C357.757 463.531 358.228 463.241 358.616 462.855C359.281 462.193 359.654 461.293 359.654 460.355V459.745C359.654 459.508 359.637 459.271 359.604 459.036L359.075 455.35C358.927 454.32 359.274 453.282 360.011 452.548L361.238 451.326C361.726 450.839 361.772 450.063 361.344 449.523L361.309 449.48C360.85 448.901 360.965 448.056 361.561 447.619C361.897 447.374 362.095 446.983 362.095 446.568V446.055C362.095 445.759 362.039 445.467 361.929 445.193L360.54 441.734C360.492 441.615 360.468 441.489 360.468 441.362C360.468 440.983 360.682 440.637 361.021 440.468L365.499 438.238C366.405 437.787 366.978 436.862 366.978 435.849C366.978 435.34 366.832 434.842 366.558 434.412L361.282 426.153L360.084 424.064C358.758 421.752 358.316 419.038 358.84 416.425L359.193 415.022C359.499 413.8 359.654 412.546 359.654 411.286C359.654 409.855 359.454 408.431 359.06 407.056L358.027 403.455L356.9 400.837C356.026 398.804 354.966 396.855 353.735 395.015L352.331 392.917L351.974 392.491C349.515 389.551 346.604 387.021 343.35 384.995L341.752 384L339.731 383.105C336.22 381.55 332.478 380.581 328.653 380.234C326.541 380.043 324.415 380.043 322.302 380.234L316.527 380.757L313.398 381.203C311.689 381.446 310 381.816 308.346 382.31C304.604 383.429 301.078 385.17 297.915 387.461L297.174 387.999C294.894 389.65 292.815 391.563 290.978 393.697L290.546 394.2C289.424 395.504 288.401 396.891 287.486 398.349L287.363 398.545C285.658 401.263 284.361 404.217 283.514 407.311C282.741 410.132 282.35 413.043 282.35 415.967V418.857L282.897 425.94C283.074 428.235 283.533 430.499 284.264 432.682C285.153 435.339 286.435 437.849 288.069 440.127L289.674 442.365L294.896 449.518C295.752 450.69 296.473 451.955 297.047 453.288C298.088 455.708 298.625 458.315 298.625 460.95V461.813C298.625 463.969 298.329 466.116 297.745 468.192L294.596 479.396C293.492 483.323 291.732 487.035 289.39 490.374L274.012 512.303L266.076 523.031L253.093 540.582C252.735 541.066 252.114 541.278 251.534 541.113L201.282 526.837C200.822 526.706 200.456 526.357 200.305 525.903L187.7 488.09C187.608 487.813 187.602 487.515 187.682 487.235L206.123 422.689C206.313 422.025 206.006 421.319 205.391 421.004L155.143 395.309C154.738 395.102 154.454 394.716 154.376 394.267L131.229 259.902C130.753 257.136 132.988 254.652 135.788 254.835L211.255 259.757C211.584 259.778 211.896 259.911 212.139 260.134L261.943 305.837L299.5 341.949L307.842 349.971C307.941 350.065 308.025 350.173 308.093 350.291L315.593 363.291C316.149 364.256 317.542 364.256 318.099 363.291L325.598 350.291C325.666 350.173 325.751 350.065 325.849 349.971L334.298 341.847L371.748 305.837L421.553 260.134Z"/>
</mask>
<path fill-rule="evenodd" clip-rule="evenodd" d="M421.553 260.134C421.796 259.911 422.107 259.778 422.436 259.757L501.565 254.596C502.499 254.535 503.244 255.363 503.085 256.285L479.315 394.267C479.238 394.716 478.953 395.102 478.548 395.309L428.3 421.004C427.685 421.319 427.378 422.025 427.568 422.689L446.009 487.235C446.09 487.515 446.083 487.813 445.991 488.09L433.386 525.903C433.235 526.357 432.869 526.706 432.409 526.837L386.507 539.877L382.13 541.121C381.564 541.282 380.957 541.084 380.595 540.62L363.779 519.083L360.875 514.917L341.49 489.285C339.518 486.678 338.129 483.678 337.417 480.487C337.053 478.856 336.87 477.19 336.87 475.518V469.941C336.87 469.395 336.958 468.852 337.132 468.334L337.144 468.297C337.494 467.252 338.182 466.353 339.1 465.743C339.773 465.296 340.545 465.021 341.349 464.941L348.262 464.252H354.539C355.232 464.252 355.921 464.141 356.579 463.922L357.238 463.704C357.757 463.531 358.228 463.241 358.616 462.855C359.281 462.193 359.654 461.293 359.654 460.355V459.745C359.654 459.508 359.637 459.271 359.604 459.036L359.075 455.35C358.927 454.32 359.274 453.282 360.011 452.548L361.238 451.326C361.726 450.839 361.772 450.063 361.344 449.523L361.309 449.48C360.85 448.901 360.965 448.056 361.561 447.619C361.897 447.374 362.095 446.983 362.095 446.568V446.055C362.095 445.759 362.039 445.467 361.929 445.193L360.54 441.734C360.492 441.615 360.468 441.489 360.468 441.362C360.468 440.983 360.682 440.637 361.021 440.468L365.499 438.238C366.405 437.787 366.978 436.862 366.978 435.849C366.978 435.34 366.832 434.842 366.558 434.412L361.282 426.153L360.084 424.064C358.758 421.752 358.316 419.038 358.84 416.425L359.193 415.022C359.499 413.8 359.654 412.546 359.654 411.286C359.654 409.855 359.454 408.431 359.06 407.056L358.027 403.455L356.9 400.837C356.026 398.804 354.966 396.855 353.735 395.015L352.331 392.917L351.974 392.491C349.515 389.551 346.604 387.021 343.35 384.995L341.752 384L339.731 383.105C336.22 381.55 332.478 380.581 328.653 380.234C326.541 380.043 324.415 380.043 322.302 380.234L316.527 380.757L313.398 381.203C311.689 381.446 310 381.816 308.346 382.31C304.604 383.429 301.078 385.17 297.915 387.461L297.174 387.999C294.894 389.65 292.815 391.563 290.978 393.697L290.546 394.2C289.424 395.504 288.401 396.891 287.486 398.349L287.363 398.545C285.658 401.263 284.361 404.217 283.514 407.311C282.741 410.132 282.35 413.043 282.35 415.967V418.857L282.897 425.94C283.074 428.235 283.533 430.499 284.264 432.682C285.153 435.339 286.435 437.849 288.069 440.127L289.674 442.365L294.896 449.518C295.752 450.69 296.473 451.955 297.047 453.288C298.088 455.708 298.625 458.315 298.625 460.95V461.813C298.625 463.969 298.329 466.116 297.745 468.192L294.596 479.396C293.492 483.323 291.732 487.035 289.39 490.374L274.012 512.303L266.076 523.031L253.093 540.582C252.735 541.066 252.114 541.278 251.534 541.113L201.282 526.837C200.822 526.706 200.456 526.357 200.305 525.903L187.7 488.09C187.608 487.813 187.602 487.515 187.682 487.235L206.123 422.689C206.313 422.025 206.006 421.319 205.391 421.004L155.143 395.309C154.738 395.102 154.454 394.716 154.376 394.267L131.229 259.902C130.753 257.136 132.988 254.652 135.788 254.835L211.255 259.757C211.584 259.778 211.896 259.911 212.139 260.134L261.943 305.837L299.5 341.949L307.842 349.971C307.941 350.065 308.025 350.173 308.093 350.291L315.593 363.291C316.149 364.256 317.542 364.256 318.099 363.291L325.598 350.291C325.666 350.173 325.751 350.065 325.849 349.971L334.298 341.847L371.748 305.837L421.553 260.134Z" fill="url(#paint2_linear_806_3396)"/>
<path d="M386.507 539.877L386.112 538.486L386.507 539.877ZM363.779 519.083L362.592 519.91C362.607 519.932 362.622 519.953 362.638 519.973L363.779 519.083ZM360.875 514.917L362.062 514.09C362.051 514.074 362.04 514.059 362.029 514.044L360.875 514.917ZM341.49 489.285L342.643 488.412H342.643L341.49 489.285ZM337.417 480.487L336.006 480.802L337.417 480.487ZM337.132 468.334L338.503 468.793L338.503 468.793L337.132 468.334ZM337.144 468.297L335.772 467.838L335.772 467.838L337.144 468.297ZM339.1 465.743L338.3 464.538L338.3 464.538L339.1 465.743ZM341.349 464.941L341.492 466.38L341.349 464.941ZM348.262 464.252V462.806C348.214 462.806 348.166 462.808 348.119 462.813L348.262 464.252ZM356.579 463.922L357.035 465.295H357.035L356.579 463.922ZM357.238 463.704L356.782 462.331L356.782 462.331L357.238 463.704ZM358.616 462.855L359.637 463.879L359.637 463.879L358.616 462.855ZM359.604 459.036L361.035 458.83L359.604 459.036ZM359.075 455.35L357.643 455.555V455.555L359.075 455.35ZM360.011 452.548L358.99 451.523L360.011 452.548ZM361.238 451.326L362.259 452.35H362.259L361.238 451.326ZM361.344 449.523L362.477 448.625L362.477 448.625L361.344 449.523ZM361.309 449.48L360.176 450.379L360.176 450.379L361.309 449.48ZM361.561 447.619L362.415 448.787L362.415 448.787L361.561 447.619ZM361.929 445.193L360.586 445.732L360.586 445.732L361.929 445.193ZM360.54 441.734L361.882 441.195L361.882 441.194L360.54 441.734ZM361.021 440.468L361.666 441.763H361.666L361.021 440.468ZM365.499 438.238L366.144 439.533L365.499 438.238ZM366.558 434.412L367.777 433.634V433.634L366.558 434.412ZM361.282 426.153L360.027 426.872C360.038 426.892 360.05 426.912 360.063 426.931L361.282 426.153ZM360.084 424.064L361.338 423.344L360.084 424.064ZM358.84 416.425L357.437 416.073C357.432 416.095 357.427 416.118 357.422 416.14L358.84 416.425ZM359.193 415.022L357.79 414.669L357.79 414.669L359.193 415.022ZM359.06 407.056L360.45 406.657L359.06 407.056ZM358.027 403.455L359.417 403.056C359.4 402.997 359.38 402.94 359.356 402.883L358.027 403.455ZM356.9 400.837L358.229 400.265L356.9 400.837ZM353.735 395.015L354.937 394.211L353.735 395.015ZM352.331 392.917L353.533 392.112C353.504 392.069 353.473 392.028 353.44 391.989L352.331 392.917ZM351.974 392.491L350.865 393.419L350.865 393.419L351.974 392.491ZM343.35 384.995L344.115 383.767L343.35 384.995ZM341.752 384L342.517 382.772C342.459 382.736 342.4 382.704 342.338 382.677L341.752 384ZM339.731 383.105L339.146 384.428L339.731 383.105ZM328.653 380.234L328.784 378.794L328.653 380.234ZM322.302 380.234L322.172 378.794L322.302 380.234ZM316.527 380.757L316.396 379.317C316.372 379.319 316.347 379.322 316.323 379.325L316.527 380.757ZM313.398 381.203L313.601 382.635L313.398 381.203ZM308.346 382.31L307.932 380.924L308.346 382.31ZM297.915 387.461L297.067 386.29L297.915 387.461ZM297.174 387.999L298.023 389.17H298.023L297.174 387.999ZM290.978 393.697L292.075 394.641V394.641L290.978 393.697ZM290.546 394.2L289.449 393.256L290.546 394.2ZM287.486 398.349L288.712 399.118L288.712 399.118L287.486 398.349ZM287.363 398.545L286.138 397.777H286.138L287.363 398.545ZM283.514 407.311L282.118 406.929V406.929L283.514 407.311ZM282.35 418.857H280.904C280.904 418.894 280.905 418.931 280.908 418.968L282.35 418.857ZM282.897 425.94L281.455 426.051L282.897 425.94ZM284.264 432.682L282.892 433.141L284.264 432.682ZM288.069 440.127L289.244 439.284V439.284L288.069 440.127ZM289.674 442.365L288.498 443.208L288.505 443.218L289.674 442.365ZM294.896 449.518L296.064 448.665V448.665L294.896 449.518ZM297.047 453.288L295.718 453.86L297.047 453.288ZM297.745 468.192L296.353 467.8L297.745 468.192ZM294.596 479.396L295.989 479.787L294.596 479.396ZM289.39 490.374L288.206 489.544L289.39 490.374ZM274.012 512.303L275.175 513.163C275.182 513.153 275.189 513.143 275.196 513.133L274.012 512.303ZM266.076 523.031L267.239 523.891L266.076 523.031ZM131.229 259.902L129.804 260.147L131.229 259.902ZM135.788 254.835L135.883 253.391L135.788 254.835ZM261.943 305.837L262.946 304.794C262.937 304.787 262.929 304.779 262.921 304.771L261.943 305.837ZM299.5 341.949L298.497 342.992L299.5 341.949ZM334.298 341.847L333.295 340.804L334.298 341.847ZM371.748 305.837L370.77 304.771C370.762 304.779 370.754 304.787 370.746 304.794L371.748 305.837ZM211.255 259.757L211.349 258.313L211.255 259.757ZM212.139 260.134L213.117 259.068L212.139 260.134ZM155.143 395.309L155.802 394.021L155.143 395.309ZM206.123 422.689L207.514 423.087L206.123 422.689ZM205.391 421.004L204.732 422.292L205.391 421.004ZM201.282 526.837L201.677 525.446L201.282 526.837ZM187.7 488.09L186.328 488.547L187.7 488.09ZM187.682 487.235L189.073 487.632L187.682 487.235ZM382.13 541.121L382.525 542.512L382.13 541.121ZM380.595 540.62L381.735 539.729L380.595 540.62ZM253.093 540.582L251.93 539.722L253.093 540.582ZM251.534 541.113L251.139 542.505L251.534 541.113ZM433.386 525.903L432.014 525.446L433.386 525.903ZM432.409 526.837L432.805 528.229L432.409 526.837ZM446.009 487.235L447.4 486.837L446.009 487.235ZM445.991 488.09L447.363 488.547L445.991 488.09ZM428.3 421.004L427.642 419.716L428.3 421.004ZM427.568 422.689L428.959 422.292L427.568 422.689ZM325.598 350.291L326.851 351.014L325.598 350.291ZM325.849 349.971L326.851 351.014L325.849 349.971ZM479.315 394.267L477.889 394.021L479.315 394.267ZM478.548 395.309L479.207 396.597L478.548 395.309ZM315.593 363.291L314.34 364.014L315.593 363.291ZM318.099 363.291L319.352 364.014L318.099 363.291ZM422.436 259.757L422.531 261.2L422.436 259.757ZM421.553 260.134L422.531 261.2L421.553 260.134ZM307.842 349.971L308.845 348.928L307.842 349.971ZM308.093 350.291L309.346 349.568L308.093 350.291ZM501.565 254.596L501.471 253.152L501.565 254.596ZM503.085 256.285L501.659 256.039L503.085 256.285ZM501.471 253.152L422.342 258.313L422.531 261.2L501.659 256.039L501.471 253.152ZM480.74 394.513L504.51 256.531L501.659 256.039L477.889 394.021L480.74 394.513ZM428.959 422.292L479.207 396.597L477.889 394.021L427.642 419.716L428.959 422.292ZM447.4 486.837L428.959 422.292L426.177 423.087L444.619 487.632L447.4 486.837ZM434.759 526.36L447.363 488.547L444.619 487.632L432.014 525.446L434.759 526.36ZM386.902 541.269L432.805 528.229L432.014 525.446L386.112 538.486L386.902 541.269ZM382.525 542.512L386.902 541.269L386.112 538.486L381.735 539.729L382.525 542.512ZM362.638 519.973L379.455 541.51L381.735 539.729L364.919 518.193L362.638 519.973ZM359.688 515.744L362.592 519.91L364.965 518.256L362.062 514.09L359.688 515.744ZM340.336 490.158L359.721 515.789L362.029 514.044L342.643 488.412L340.336 490.158ZM336.006 480.802C336.762 484.195 338.239 487.385 340.336 490.158L342.643 488.412C340.796 485.971 339.496 483.16 338.829 480.172L336.006 480.802ZM335.423 475.518C335.423 477.296 335.619 479.068 336.006 480.802L338.829 480.172C338.488 478.644 338.316 477.084 338.316 475.518H335.423ZM335.423 469.941V475.518H338.316V469.941H335.423ZM335.76 467.875C335.537 468.541 335.423 469.239 335.423 469.941H338.316C338.316 469.551 338.38 469.163 338.503 468.793L335.76 467.875ZM335.772 467.838L335.76 467.875L338.503 468.793L338.516 468.756L335.772 467.838ZM338.3 464.538C337.114 465.326 336.224 466.487 335.772 467.838L338.516 468.756C338.763 468.016 339.251 467.38 339.9 466.948L338.3 464.538ZM341.205 463.502C340.167 463.605 339.169 463.961 338.3 464.538L339.9 466.948C340.377 466.632 340.923 466.437 341.492 466.38L341.205 463.502ZM348.119 462.813L341.205 463.502L341.492 466.38L348.405 465.692L348.119 462.813ZM354.539 462.806H348.262V465.699H354.539V462.806ZM356.123 462.55C355.612 462.719 355.077 462.806 354.539 462.806V465.699C355.387 465.699 356.23 465.562 357.035 465.295L356.123 462.55ZM356.782 462.331L356.123 462.55L357.035 465.295L357.693 465.076L356.782 462.331ZM357.595 461.83C357.366 462.058 357.088 462.229 356.782 462.331L357.693 465.076C358.425 464.833 359.091 464.424 359.637 463.879L357.595 461.83ZM358.208 460.355C358.208 460.908 357.987 461.439 357.595 461.83L359.637 463.879C360.574 462.946 361.101 461.678 361.101 460.355H358.208ZM358.208 459.745V460.355H361.101V459.745H358.208ZM358.172 459.241C358.196 459.408 358.208 459.576 358.208 459.745H361.101C361.101 459.439 361.079 459.133 361.035 458.83L358.172 459.241ZM357.643 455.555L358.172 459.241L361.035 458.83L360.507 455.145L357.643 455.555ZM358.99 451.523C357.93 452.579 357.431 454.074 357.643 455.555L360.507 455.145C360.424 454.567 360.619 453.984 361.032 453.572L358.99 451.523ZM360.217 450.301L358.99 451.523L361.032 453.572L362.259 452.35L360.217 450.301ZM360.21 450.422C360.181 450.386 360.184 450.333 360.217 450.301L362.259 452.35C363.269 451.345 363.362 449.741 362.477 448.625L360.21 450.422ZM360.176 450.379L360.21 450.422L362.477 448.625L362.443 448.582L360.176 450.379ZM360.708 446.451C359.448 447.372 359.207 449.156 360.176 450.379L362.443 448.582C362.494 448.646 362.481 448.739 362.415 448.787L360.708 446.451ZM360.649 446.568C360.649 446.522 360.671 446.479 360.708 446.452L362.415 448.787C363.123 448.269 363.542 447.445 363.542 446.568H360.649ZM360.649 446.055V446.568H363.542V446.055H360.649ZM360.586 445.732C360.628 445.835 360.649 445.944 360.649 446.055H363.542C363.542 445.575 363.45 445.099 363.271 444.654L360.586 445.732ZM359.197 442.273L360.586 445.732L363.271 444.654L361.882 441.195L359.197 442.273ZM359.021 441.362C359.021 441.674 359.081 441.983 359.197 442.273L361.882 441.194C361.903 441.248 361.914 441.304 361.914 441.362H359.021ZM360.376 439.174C359.546 439.587 359.021 440.434 359.021 441.362H361.914C361.914 441.532 361.818 441.687 361.666 441.763L360.376 439.174ZM364.854 436.943L360.376 439.174L361.666 441.763L366.144 439.533L364.854 436.943ZM365.531 435.849C365.531 436.313 365.269 436.737 364.854 436.943L366.144 439.533C367.541 438.837 368.424 437.41 368.424 435.849H365.531ZM365.339 435.191C365.465 435.388 365.531 435.616 365.531 435.849H368.424C368.424 435.064 368.2 434.295 367.777 433.634L365.339 435.191ZM360.063 426.931L365.339 435.191L367.777 433.634L362.501 425.374L360.063 426.931ZM358.829 424.784L360.027 426.872L362.536 425.433L361.338 423.344L358.829 424.784ZM357.422 416.14C356.829 419.097 357.329 422.168 358.829 424.784L361.338 423.344C360.187 421.337 359.803 418.979 360.259 416.71L357.422 416.14ZM357.79 414.669L357.437 416.073L360.244 416.777L360.596 415.374L357.79 414.669ZM358.208 411.286C358.208 412.427 358.067 413.563 357.79 414.669L360.596 415.374C360.931 414.037 361.101 412.664 361.101 411.286H358.208ZM357.669 407.455C358.026 408.701 358.208 409.99 358.208 411.286H361.101C361.101 409.72 360.882 408.162 360.45 406.657L357.669 407.455ZM356.636 403.854L357.669 407.455L360.45 406.657L359.417 403.056L356.636 403.854ZM355.572 401.408L356.698 404.027L359.356 402.883L358.229 400.265L355.572 401.408ZM352.533 395.82C353.715 397.586 354.732 399.457 355.572 401.408L358.229 400.265C357.319 398.151 356.218 396.124 354.937 394.211L352.533 395.82ZM351.129 393.721L352.533 395.82L354.937 394.211L353.533 392.112L351.129 393.721ZM350.865 393.419L351.221 393.845L353.44 391.989L353.084 391.563L350.865 393.419ZM342.586 386.223C345.709 388.168 348.504 390.597 350.865 393.419L353.084 391.563C350.526 388.505 347.499 385.874 344.115 383.767L342.586 386.223ZM340.988 385.228L342.586 386.223L344.115 383.767L342.517 382.772L340.988 385.228ZM339.146 384.428L341.167 385.322L342.338 382.677L340.317 381.782L339.146 384.428ZM328.523 381.675C332.19 382.007 335.779 382.937 339.146 384.428L340.317 381.782C336.661 380.164 332.765 379.154 328.784 378.794L328.523 381.675ZM322.433 381.675C324.459 381.491 326.497 381.491 328.523 381.675L328.784 378.794C326.584 378.594 324.371 378.594 322.172 378.794L322.433 381.675ZM316.657 382.198L322.433 381.675L322.172 378.794L316.396 379.317L316.657 382.198ZM313.601 382.635L316.73 382.189L316.323 379.325L313.194 379.77L313.601 382.635ZM308.761 383.696C310.346 383.223 311.964 382.868 313.601 382.635L313.194 379.77C311.414 380.024 309.655 380.41 307.932 380.924L308.761 383.696ZM298.764 388.633C301.795 386.437 305.175 384.768 308.761 383.696L307.932 380.924C304.034 382.089 300.361 383.903 297.067 386.29L298.764 388.633ZM298.023 389.17L298.764 388.633L297.067 386.29L296.325 386.827L298.023 389.17ZM292.075 394.641C293.838 392.592 295.834 390.756 298.023 389.17L296.325 386.827C293.954 388.545 291.792 390.534 289.882 392.754L292.075 394.641ZM291.642 395.143L292.075 394.641L289.882 392.754L289.449 393.256L291.642 395.143ZM288.712 399.118C289.588 397.721 290.567 396.393 291.642 395.143L289.449 393.256C288.28 394.616 287.214 396.061 286.261 397.58L288.712 399.118ZM288.588 399.314L288.712 399.118L286.261 397.58L286.138 397.777L288.588 399.314ZM284.909 407.693C285.719 404.735 286.958 401.912 288.588 399.314L286.138 397.777C284.357 400.614 283.003 403.698 282.118 406.929L284.909 407.693ZM283.797 415.967C283.797 413.172 284.171 410.389 284.909 407.693L282.118 406.929C281.312 409.874 280.904 412.914 280.904 415.967H283.797ZM283.797 418.857V415.967H280.904V418.857H283.797ZM284.339 425.828L283.792 418.746L280.908 418.968L281.455 426.051L284.339 425.828ZM285.635 432.223C284.943 430.152 284.507 428.005 284.339 425.828L281.455 426.051C281.641 428.464 282.124 430.845 282.892 433.141L285.635 432.223ZM289.244 439.284C287.695 437.123 286.479 434.743 285.635 432.223L282.892 433.141C283.827 435.935 285.176 438.574 286.893 440.969L289.244 439.284ZM290.849 441.522L289.244 439.284L286.893 440.969L288.498 443.208L290.849 441.522ZM296.064 448.665L290.842 441.512L288.505 443.218L293.728 450.371L296.064 448.665ZM298.375 452.717C297.759 451.284 296.984 449.925 296.064 448.665L293.728 450.371C294.519 451.456 295.187 452.626 295.718 453.86L298.375 452.717ZM300.071 460.95C300.071 458.119 299.494 455.317 298.375 452.717L295.718 453.86C296.681 456.099 297.178 458.512 297.178 460.95H300.071ZM300.071 461.813V460.95H297.178V461.813H300.071ZM299.138 468.583C299.757 466.38 300.071 464.102 300.071 461.813H297.178C297.178 463.837 296.9 465.852 296.353 467.8L299.138 468.583ZM295.989 479.787L299.138 468.583L296.353 467.8L293.204 479.004L295.989 479.787ZM290.574 491.205C293.01 487.732 294.841 483.871 295.989 479.787L293.204 479.004C292.144 482.774 290.454 486.338 288.206 489.544L290.574 491.205ZM275.196 513.133L290.574 491.205L288.206 489.544L272.828 511.472L275.196 513.133ZM267.239 523.891L275.175 513.163L272.849 511.442L264.913 522.171L267.239 523.891ZM254.256 541.442L267.239 523.891L264.913 522.171L251.93 539.722L254.256 541.442ZM200.886 528.229L251.139 542.505L251.93 539.722L201.677 525.446L200.886 528.229ZM186.328 488.547L198.932 526.36L201.677 525.446L189.073 487.632L186.328 488.547ZM204.732 422.292L186.291 486.837L189.073 487.632L207.514 423.087L204.732 422.292ZM154.485 396.597L204.732 422.292L206.05 419.716L155.802 394.021L154.485 396.597ZM129.804 260.147L152.951 394.513L155.802 394.021L132.655 259.656L129.804 260.147ZM135.883 253.391C132.148 253.148 129.169 256.46 129.804 260.147L132.655 259.656C132.337 257.812 133.827 256.156 135.694 256.278L135.883 253.391ZM211.349 258.313L135.883 253.391L135.694 256.278L211.161 261.2L211.349 258.313ZM262.921 304.771L213.117 259.068L211.161 261.2L260.965 306.903L262.921 304.771ZM300.502 340.906L262.946 304.794L260.94 306.88L298.497 342.992L300.502 340.906ZM308.845 348.928L300.502 340.906L298.497 342.992L306.84 351.014L308.845 348.928ZM316.846 362.568L309.346 349.568L306.84 351.014L314.34 364.014L316.846 362.568ZM324.345 349.568L316.846 362.568L319.352 364.014L326.851 351.014L324.345 349.568ZM333.295 340.804L324.846 348.928L326.851 351.014L335.3 342.89L333.295 340.804ZM370.746 304.794L333.295 340.804L335.3 342.89L372.751 306.88L370.746 304.794ZM420.575 259.068L370.77 304.771L372.726 306.903L422.531 261.2L420.575 259.068ZM211.161 261.2V261.2L213.117 259.068C212.631 258.622 212.007 258.356 211.349 258.313L211.161 261.2ZM155.802 394.021L152.951 394.513C153.105 395.41 153.674 396.183 154.485 396.597L155.802 394.021ZM207.514 423.087C207.894 421.758 207.28 420.346 206.05 419.716L204.732 422.292L207.514 423.087ZM201.677 525.446L198.932 526.36C199.235 527.268 199.966 527.967 200.886 528.229L201.677 525.446ZM189.073 487.632L186.291 486.837C186.131 487.398 186.144 487.994 186.328 488.547L189.073 487.632ZM381.735 539.729L379.455 541.51C380.179 542.438 381.393 542.834 382.525 542.512L381.735 539.729ZM251.93 539.722L251.139 542.505C252.298 542.834 253.539 542.411 254.256 541.442L251.93 539.722ZM432.014 525.446L432.805 528.229C433.725 527.967 434.456 527.268 434.759 526.36L432.014 525.446ZM444.619 487.632L447.363 488.547C447.548 487.994 447.561 487.398 447.4 486.837L444.619 487.632ZM427.642 419.716C426.411 420.346 425.797 421.758 426.177 423.087L428.959 422.292H428.959L427.642 419.716ZM326.851 351.014L324.846 348.928C324.65 349.117 324.481 349.332 324.345 349.568L326.851 351.014ZM477.889 394.021L479.207 396.597C480.017 396.183 480.586 395.41 480.74 394.513L477.889 394.021ZM314.34 364.014C315.453 365.943 318.238 365.943 319.352 364.014L316.846 362.568V362.568L314.34 364.014ZM422.342 258.313C421.684 258.356 421.061 258.622 420.575 259.068L422.531 261.2L422.342 258.313ZM306.84 351.014L309.346 349.568C309.21 349.332 309.041 349.117 308.845 348.928L306.84 351.014ZM501.659 256.039V256.039L504.51 256.531C504.828 254.687 503.338 253.031 501.471 253.152L501.659 256.039Z" fill="#65E6FF" mask="url(#path-6-inside-3_806_3396)"/>
<path d="M362.302 315.283L417.439 264.844L419.527 262.983C421.851 260.91 424.752 259.691 427.792 259.506L442.589 258.61" stroke="white" stroke-width="2.95175" stroke-linecap="round"/>
<path d="M142.101 324.138L131.555 261.915C130.913 258.127 133.802 254.711 137.442 254.954L155.619 256.165" stroke="white" stroke-width="2.95175" stroke-linecap="round"/>
<path d="M491.59 321.187L480.373 386.715V386.715C479.629 391.554 476.695 395.652 472.434 397.806L453.602 407.327" stroke="white" stroke-width="2.95175" stroke-linecap="round"/>
<path d="M431.515 435.125L443.46 478.06C445.207 484.34 445.118 490.901 443.202 497.008L436.687 517.774" stroke="white" stroke-width="2.95175" stroke-linecap="round"/>
<path d="M253.982 298.838L293.821 336.535L304.302 347.015C306.36 349.073 308.159 351.353 309.661 353.807L317.628 366.824" stroke="white" stroke-width="2.95175" stroke-linecap="round"/>
<path d="M368.206 525.448L341.906 490.206C339.795 487.377 338.472 484.054 338.058 480.539L337.698 477.483" stroke="white" stroke-width="2.95175" stroke-linecap="round"/>
<path d="M201.184 441.321L206.532 423.933C207.162 421.884 206.159 419.76 204.176 418.941L204.077 418.9L172.976 403.712" stroke="white" stroke-width="2.95175" stroke-linecap="round"/>
<path d="M261.033 529.599L255.16 538.182C254.03 539.834 252.216 540.816 250.296 540.816V540.816C249.978 540.816 249.662 540.771 249.356 540.682L211.31 529.599" stroke="white" stroke-width="2.95175" stroke-linecap="round"/>
<path d="M281.426 416.233L281.49 414.352C282.115 395.871 297.585 380.505 316.718 379.358L320.702 379.119" stroke="white" stroke-width="2.95175" stroke-linecap="round"/>
<rect x="249.547" y="294.619" width="5.90351" height="5.90351" rx="1.1807" fill="white"/>
<g filter="url(#filter2_f_806_3396)">
<path d="M475.966 282.567L349.632 376.433" stroke="#AEF2FF" stroke-width="1.77105" stroke-linecap="round"/>
<path d="M473.608 342.193L362.622 394.734" stroke="#AEF2FF" stroke-width="1.77105" stroke-linecap="round"/>
<path d="M432.283 398.546L365.783 407.638" stroke="#AEF2FF" stroke-width="1.77105" stroke-linecap="round"/>
<path d="M426.059 463.46L373.518 434.533" stroke="#AEF2FF" stroke-width="1.77105" stroke-linecap="round"/>
<path d="M385.055 506.9L360.531 469.954" stroke="#AEF2FF" stroke-width="1.77105" stroke-linecap="round"/>
<path d="M425.786 511.626L369.976 454.017" stroke="#AEF2FF" stroke-width="1.77105" stroke-linecap="round"/>
<rect width="5.90351" height="5.90351" rx="1.1807" transform="matrix(-0.958234 -0.285985 -0.285985 0.958234 438.719 395.488)" fill="#AEF2FF"/>
<rect width="5.90351" height="5.90351" rx="1.1807" transform="matrix(-0.958234 -0.285985 -0.285985 0.958234 423.369 415.559)" fill="#AEF2FF"/>
<rect width="5.90351" height="5.90351" rx="1.1807" transform="matrix(-0.958234 -0.285985 -0.285985 0.958234 454.066 399.03)" fill="#AEF2FF"/>
<rect width="5.90351" height="5.90351" rx="1.1807" transform="matrix(-0.995208 0.0977846 0.0977846 0.995208 431.345 462.28)" fill="#AEF2FF"/>
<rect width="5.90351" height="5.90351" rx="1.1807" transform="matrix(-0.995208 0.0977846 0.0977846 0.995208 431.345 488.255)" fill="#AEF2FF"/>
<rect width="5.90351" height="5.90351" rx="1.1807" transform="matrix(-0.995208 0.0977846 0.0977846 0.995208 420.719 488.255)" fill="#AEF2FF"/>
<rect width="5.90351" height="5.90351" rx="1.1807" transform="matrix(-0.995208 0.0977846 0.0977846 0.995208 430.524 510.443)" fill="#AEF2FF"/>
<path d="M389.367 506.822C389.473 506.179 389.037 505.571 388.394 505.465L384.899 504.89C384.255 504.784 383.648 505.219 383.542 505.863L382.966 509.358C382.86 510.001 383.296 510.609 383.939 510.715L387.434 511.29C388.077 511.396 388.685 510.961 388.791 510.317L389.367 506.822Z" fill="#AEF2FF"/>
<path d="M405.294 373.325L404.037 371.188C401.756 367.31 403.108 362.332 407.112 359.87V359.87L447.02 337.858" stroke="#AEF2FF" stroke-width="1.77105" stroke-linecap="round"/>
<path d="M364.98 363.51L361.851 359.768C356.636 353.532 357.489 344.301 363.802 338.652V338.652L425.789 289.653" stroke="#AEF2FF" stroke-width="1.77105" stroke-linecap="round"/>
<path d="M388.262 383.627L391.839 388.262C392.845 389.566 394.105 390.65 395.549 391.455V391.455C399.377 393.59 404.137 393.571 408.177 391.405L464.354 361.287" stroke="#AEF2FF" stroke-width="1.77105" stroke-linecap="round"/>
<path d="M371.774 407.456L373.565 415.61V415.61C374.565 419.396 378.256 421.881 382.359 421.529L416.613 418.594" stroke="#AEF2FF" stroke-width="1.77105" stroke-linecap="round"/>
<path d="M385.914 405.606V405.606C385.915 409.121 389.019 411.807 392.681 411.462L403.035 410.485L449.084 402.655" stroke="#AEF2FF" stroke-width="1.77105" stroke-linecap="round"/>
<path d="M383.203 469.568L380.888 472.464C379.921 473.674 379.337 475.139 379.204 476.69V476.69C379.008 478.972 379.799 481.273 381.391 483.045L403.037 507.145" stroke="#AEF2FF" stroke-width="1.77105" stroke-linecap="round"/>
<path d="M377.061 461.1L379.367 458.251C383.463 453.192 391.261 453.144 395.952 458.148V458.148L426.651 489.437" stroke="#AEF2FF" stroke-width="1.77105" stroke-linecap="round"/>
<path d="M392.435 476.376V476.376C394.442 472.373 399.901 471.771 403.112 475.198L404.216 476.376L416.022 488.847" stroke="#AEF2FF" stroke-width="1.77105" stroke-linecap="round"/>
<rect width="5.90351" height="5.90351" rx="1.1807" transform="matrix(-1 0 0 1 429.921 284.93)" fill="#AEF2FF"/>
<rect width="5.90351" height="5.90351" rx="1.1807" transform="matrix(-0.991001 -0.133851 -0.133851 0.991001 452.914 333.887)" fill="#AEF2FF"/>
<rect width="5.90351" height="5.90351" rx="1.1807" transform="matrix(-1 0 0 1 480.69 277.846)" fill="#AEF2FF"/>
<rect width="5.90351" height="5.90351" rx="1.1807" transform="matrix(-0.991805 -0.12776 -0.12776 0.991805 470.889 356.771)" fill="#AEF2FF"/>
<rect width="5.90351" height="5.90351" rx="1.1807" transform="matrix(-0.987103 -0.160089 -0.160089 0.987103 479.51 337.827)" fill="#AEF2FF"/>
<rect width="5.90351" height="5.90351" rx="1.1807" transform="matrix(-0.987103 -0.160089 -0.160089 0.987103 408.629 508.091)" fill="#AEF2FF"/>
</g>
<path d="M475.966 282.567L349.632 376.433" stroke="#65E6FF" stroke-width="1.77105" stroke-linecap="round"/>
<path d="M473.608 342.193L362.622 394.734" stroke="#65E6FF" stroke-width="1.77105" stroke-linecap="round"/>
<path d="M447.094 395.755L365.783 407.638" stroke="#65E6FF" stroke-width="1.77105" stroke-linecap="round"/>
<path d="M426.059 463.46L373.518 434.533" stroke="#65E6FF" stroke-width="1.77105" stroke-linecap="round"/>
<path d="M385.055 506.9L360.531 469.954" stroke="#65E6FF" stroke-width="1.77105" stroke-linecap="round"/>
<path d="M425.786 511.626L369.976 454.017" stroke="#65E6FF" stroke-width="1.77105" stroke-linecap="round"/>
<rect width="5.90351" height="5.90351" rx="1.1807" transform="matrix(-0.958234 -0.285985 -0.285985 0.958234 452.269 393.223)" fill="#65E6FF"/>
<rect width="5.90351" height="5.90351" rx="1.1807" transform="matrix(-0.906151 -0.422955 -0.422955 0.906151 423.838 416.333)" fill="#65E6FF"/>
<rect width="5.90351" height="5.90351" rx="1.1807" transform="matrix(-0.926795 -0.375567 -0.375567 0.926795 435.254 404.481)" fill="#65E6FF"/>
<rect width="5.90351" height="5.90351" rx="1.1807" transform="matrix(-0.995208 0.0977846 0.0977846 0.995208 431.345 462.28)" fill="#65E6FF"/>
<rect width="5.90351" height="5.90351" rx="1.1807" transform="matrix(-0.995208 0.0977846 0.0977846 0.995208 431.345 488.255)" fill="#65E6FF"/>
<rect width="5.90351" height="5.90351" rx="1.1807" transform="matrix(-0.995208 0.0977846 0.0977846 0.995208 420.719 488.255)" fill="#65E6FF"/>
<rect width="5.90351" height="5.90351" rx="1.1807" transform="matrix(-0.995208 0.0977846 0.0977846 0.995208 429.734 509.306)" fill="#65E6FF"/>
<path d="M389.367 506.822C389.473 506.179 389.037 505.571 388.394 505.465L384.899 504.89C384.255 504.784 383.648 505.219 383.542 505.863L382.966 509.358C382.86 510.001 383.296 510.609 383.939 510.715L387.434 511.29C388.077 511.396 388.685 510.961 388.791 510.317L389.367 506.822Z" fill="#65E6FF"/>
<path d="M405.867 374.056L404.012 370.808C401.829 366.988 403.297 362.13 407.314 359.88V359.88L447.093 337.894" stroke="#65E6FF" stroke-width="1.77105" stroke-linecap="round"/>
<path d="M365.219 363.93L361.801 359.806C356.608 353.541 357.482 344.307 363.802 338.652V338.652L425.394 289.433" stroke="#65E6FF" stroke-width="1.77105" stroke-linecap="round"/>
<path d="M387.786 383.025L391.84 388.267C392.845 389.568 394.103 390.649 395.545 391.453V391.453C399.375 393.589 404.138 393.57 408.181 391.403L464.354 361.287" stroke="#65E6FF" stroke-width="1.77105" stroke-linecap="round"/>
<path d="M371.874 407.326L373.565 415.61V415.61C374.253 419.151 377.583 421.576 381.361 421.287L416.614 418.594" stroke="#65E6FF" stroke-width="1.77105" stroke-linecap="round"/>
<path d="M385.616 404.434V404.434C385.616 408.51 389.287 411.585 393.523 411.058L430.458 406.458" stroke="#65E6FF" stroke-width="1.77105" stroke-linecap="round"/>
<path d="M383.446 468.803L380.743 472.494C379.868 473.688 379.341 475.096 379.213 476.58V476.58C379.011 478.932 379.827 481.304 381.468 483.13L403.037 507.145" stroke="#65E6FF" stroke-width="1.77105" stroke-linecap="round"/>
<path d="M377.061 461.1L379.367 458.251C383.463 453.192 391.261 453.144 395.952 458.148V458.148L426.651 489.437" stroke="#65E6FF" stroke-width="1.77105" stroke-linecap="round"/>
<path d="M392.435 476.376V476.376C394.442 472.373 399.901 471.771 403.112 475.198L404.216 476.376L416.022 488.847" stroke="#65E6FF" stroke-width="1.77105" stroke-linecap="round"/>
<rect width="5.90351" height="5.90351" rx="1.1807" transform="matrix(-1 0 0 1 429.921 284.93)" fill="#65E6FF"/>
<rect width="5.90351" height="5.90351" rx="1.1807" transform="matrix(-0.991001 -0.133851 -0.133851 0.991001 452.914 333.887)" fill="#65E6FF"/>
<rect width="5.90351" height="5.90351" rx="1.1807" transform="matrix(-1 0 0 1 480.69 277.846)" fill="#65E6FF"/>
<rect width="5.90351" height="5.90351" rx="1.1807" transform="matrix(-0.991805 -0.12776 -0.12776 0.991805 470.889 356.771)" fill="#65E6FF"/>
<rect width="5.90351" height="5.90351" rx="1.1807" transform="matrix(-0.987103 -0.160089 -0.160089 0.987103 479.179 338.115)" fill="#65E6FF"/>
<rect width="5.90351" height="5.90351" rx="1.1807" transform="matrix(-0.987103 -0.160089 -0.160089 0.987103 408.471 507.357)" fill="#65E6FF"/>
<path d="M475.965 282.567L349.631 376.433" stroke="white" stroke-width="0.590351" stroke-linecap="round"/>
<path d="M475.3 341.509L362.622 394.735" stroke="white" stroke-width="0.590351" stroke-linecap="round"/>
<path d="M447.092 395.755L365.781 407.639" stroke="white" stroke-width="0.590351" stroke-linecap="round"/>
<path d="M427.829 464.644L373.517 434.535" stroke="white" stroke-width="0.590351" stroke-linecap="round"/>
<path d="M385.054 506.9L360.53 469.954" stroke="white" stroke-width="0.590351" stroke-linecap="round"/>
<path d="M427.24 513.049L369.975 454.014" stroke="white" stroke-width="0.590351" stroke-linecap="round"/>
<rect width="3.5421" height="3.5421" rx="1.1807" transform="matrix(-0.958234 -0.285985 -0.285985 0.958234 450.776 393.945)" fill="white"/>
<rect width="3.5421" height="3.5421" rx="1.1807" transform="matrix(-0.958234 -0.285985 -0.285985 0.958234 422.026 416.729)" fill="white"/>
<rect width="3.5421" height="3.5421" rx="1.1807" transform="matrix(-0.920614 -0.390474 -0.390474 0.920614 433.655 405.093)" fill="white"/>
<rect width="3.5421" height="3.5421" rx="1.1807" transform="matrix(-0.995208 0.0977846 0.0977846 0.995208 430.002 463.379)" fill="white"/>
<rect width="3.5421" height="3.5421" rx="1.1807" transform="matrix(-0.995208 0.0977846 0.0977846 0.995208 430.002 489.682)" fill="white"/>
<rect width="3.5421" height="3.5421" rx="1.1807" transform="matrix(-0.995208 0.0977846 0.0977846 0.995208 419.376 489.682)" fill="white"/>
<rect width="3.5421" height="3.5421" rx="1.1807" transform="matrix(-0.995208 0.0977846 0.0977846 0.995208 428.648 510.752)" fill="white"/>
<path d="M388.024 508.249C388.13 507.606 387.694 506.998 387.051 506.892L385.886 506.7C385.242 506.594 384.635 507.03 384.529 507.673L384.337 508.838C384.231 509.482 384.667 510.089 385.31 510.195L386.475 510.387C387.118 510.493 387.726 510.057 387.832 509.414L388.024 508.249Z" fill="white"/>
<path d="M405.866 374.057L404.112 371.147C401.795 367.303 403.118 362.326 407.111 359.87V359.87L448.492 337.126" stroke="white" stroke-width="0.590351" stroke-linecap="round"/>
<path d="M365.363 364.292L361.732 359.859C356.57 353.555 357.471 344.315 363.801 338.652V338.652L425.393 289.433" stroke="white" stroke-width="0.590351" stroke-linecap="round"/>
<path d="M387.785 383.097L391.847 388.297C392.848 389.578 394.095 390.645 395.521 391.44V391.44C399.365 393.584 404.147 393.56 408.201 391.378L466.204 360.15" stroke="white" stroke-width="0.590351" stroke-linecap="round"/>
<path d="M371.873 406.964L373.564 415.612V415.612C374.253 419.153 377.581 421.58 381.36 421.297L418.161 418.537" stroke="white" stroke-width="0.590351" stroke-linecap="round"/>
<path d="M385.615 404.722V404.722C385.778 408.723 389.431 411.658 393.596 411.135L429.735 406.602" stroke="white" stroke-width="0.590351" stroke-linecap="round"/>
<path d="M383.734 468.441L380.748 472.496C379.87 473.689 379.34 475.099 379.212 476.584V476.584C379.01 478.934 379.828 481.303 381.47 483.125L404.419 508.583" stroke="white" stroke-width="0.590351" stroke-linecap="round"/>
<path d="M377.061 461.098L379.367 458.249C383.463 453.19 391.261 453.142 395.953 458.146V458.146L427.832 490.615" stroke="white" stroke-width="0.590351" stroke-linecap="round"/>
<path d="M392.124 476.759V476.759C394.293 472.55 400.064 471.944 403.46 475.569L404.216 476.376L417.793 490.617" stroke="white" stroke-width="0.590351" stroke-linecap="round"/>
<rect width="3.5421" height="3.5421" rx="1.1807" transform="matrix(-1 0 0 1 428.578 286.355)" fill="white"/>
<rect width="3.5421" height="3.5421" rx="1.1807" transform="matrix(-0.991001 -0.133851 -0.133851 0.991001 451.571 335.312)" fill="white"/>
<rect width="3.5421" height="3.5421" rx="1.1807" transform="matrix(-1 0 0 1 479.348 279.272)" fill="white"/>
<rect width="3.5421" height="3.5421" rx="1.1807" transform="matrix(-0.991805 -0.12776 -0.12776 0.991805 469.546 358.198)" fill="white"/>
<rect width="3.5421" height="3.5421" rx="1.1807" transform="matrix(-0.987103 -0.160089 -0.160089 0.987103 477.917 339.183)" fill="white"/>
<rect width="3.5421" height="3.5421" rx="1.1807" transform="matrix(-0.987103 -0.160089 -0.160089 0.987103 407.24 508.426)" fill="white"/>
<rect x="358.132" y="314.025" width="5.90351" height="5.90351" rx="1.1807" fill="white"/>
<rect x="141.768" y="322.705" width="5.90351" height="5.90351" rx="1.1807" transform="rotate(36.4468 141.768 322.705)" fill="white"/>
<rect x="196.121" y="442.376" width="5.90351" height="5.90351" rx="1.1807" transform="rotate(-25.0942 196.121 442.376)" fill="white"/>
<rect x="258.321" y="525.247" width="5.90351" height="5.90351" rx="1.1807" transform="rotate(-14.4827 258.321 525.247)" fill="white"/>
<rect x="327.55" y="379.119" width="5.90351" height="5.90351" rx="1.1807" transform="rotate(133.104 327.55 379.119)" fill="white"/>
<rect x="366.435" y="523.677" width="5.90351" height="5.90351" rx="1.1807" fill="white"/>
<rect x="429.867" y="428.101" width="5.90351" height="5.90351" rx="1.1807" transform="rotate(32.3382 429.867 428.101)" fill="white"/>
<path d="M221.956 438.848C218.74 438.673 216.331 436.827 214.592 434.285C208.582 425.499 217.774 416.623 228.332 417.987V417.987V417.987C238.194 419.261 244.506 426.379 253.14 431.312C256.297 433.116 260.497 433.845 266.277 431.918C271.59 430.147 271.844 428.41 277.85 426.132" stroke="white" stroke-width="1.77105" stroke-linecap="round"/>
<path d="M211.309 282.925C213.853 282.925 215.785 281.366 228.074 288.762C231.878 291.051 235.279 293.948 238.347 297.156V297.156C245.735 304.88 250.864 314.482 253.175 324.917L253.854 327.984C257.743 345.541 268.268 360.915 283.229 370.892L296.653 379.843" stroke="white" stroke-width="1.77105" stroke-linecap="round"/>
<path d="M172.662 274.76C166.759 289.519 201.589 298.374 209.973 310.879C214.715 317.953 213.396 335.437 218.709 346.783C224.023 358.128 230.482 365.886 248.759 375.109C267.037 384.332 273.465 387.058 280.018 388.522" stroke="white" stroke-width="1.77105" stroke-linecap="round"/>
<path d="M156.305 321.312C151.169 328.265 147.379 342.831 173.307 345.466C180.568 346.381 196.579 349.529 202.53 354.799V354.799C220.578 370.783 236.139 390.278 259.422 396.534C265.982 398.297 272.451 399.857 277.848 400.818" stroke="white" stroke-width="1.77105" stroke-linecap="round"/>
<path d="M173.843 360.951C174.197 372.663 171.015 390.698 194.673 399.372C211.144 405.41 233.585 402.82 248.918 404.434C262.66 405.881 267.723 408.774 275.678 410.22" stroke="white" stroke-width="1.77105" stroke-linecap="round"/>
<path d="M256.151 432.64C251.812 432.64 237.359 434.723 235.9 444.937C234.453 455.063 238.069 462.295 212.755 472.421" stroke="white" stroke-width="1.77105" stroke-linecap="round"/>
<path d="M282.911 440.598C280.337 446.388 277.293 455.305 247.356 467.442C239.185 470.755 230.42 473.862 225.136 480.93C222.721 484.161 220.791 488.068 220.364 492.452C219.37 502.653 220.814 507.175 221.66 509.13" stroke="white" stroke-width="1.77105" stroke-linecap="round"/>
<path d="M287.878 452.766V452.766C286.091 468.56 277.954 482.948 265.339 492.619L263.383 494.119" stroke="white" stroke-width="1.77105" stroke-linecap="round"/>
<path d="M211.212 282.183C211.212 284.753 209.202 286.787 206.784 286.787C204.366 286.787 202.356 284.753 202.356 282.183C202.356 279.613 204.366 277.579 206.784 277.579C209.202 277.579 211.212 279.613 211.212 282.183Z" stroke="white" stroke-width="1.77105"/>
<circle cx="157.653" cy="317.589" r="4.1773" stroke="white" stroke-width="1.77105"/>
<circle cx="173.916" cy="357.483" r="2.73078" stroke="white" stroke-width="1.77105"/>
<circle cx="224.686" cy="438.95" r="2.73078" stroke="white" stroke-width="1.77105"/>
<path d="M229.041 513.38C229.041 515.825 227.058 517.807 224.613 517.807C222.168 517.807 220.185 515.825 220.185 513.38C220.185 510.934 222.168 508.952 224.613 508.952C227.058 508.952 229.041 510.934 229.041 513.38Z" stroke="white" stroke-width="1.77105"/>
<path d="M263.221 497.011C263.221 499.318 261.35 501.188 259.043 501.188C256.736 501.188 254.866 499.318 254.866 497.011C254.866 494.704 256.736 492.834 259.043 492.834C261.35 492.834 263.221 494.704 263.221 497.011Z" stroke="white" stroke-width="1.77105"/>
<path d="M212.593 473.868C212.593 476.175 210.722 478.045 208.415 478.045C206.108 478.045 204.238 476.175 204.238 473.868C204.238 471.56 206.108 469.69 208.415 469.69C210.722 469.69 212.593 471.56 212.593 473.868Z" stroke="white" stroke-width="1.77105"/>
<circle cx="216.555" cy="455.731" r="3.24693" stroke="white" stroke-width="1.77105"/>
<circle cx="245.094" cy="522.119" r="3.24693" stroke="white" stroke-width="1.77105"/>
<circle cx="191.573" cy="380.359" r="3.24693" stroke="white" stroke-width="1.77105"/>
<circle cx="236.332" cy="328.541" r="6.34708" stroke="white" stroke-width="1.77105"/>
<circle cx="189.61" cy="323.429" r="2.73078" stroke="white" stroke-width="1.77105"/>
<path d="M265.17 476.051C265.17 478.497 263.187 480.479 260.742 480.479C258.297 480.479 256.314 478.497 256.314 476.051C256.314 473.606 258.297 471.624 260.742 471.624C263.187 471.624 265.17 473.606 265.17 476.051Z" stroke="white" stroke-width="1.77105"/>
<path d="M179.823 270.334C179.823 272.905 177.813 274.939 175.395 274.939C172.977 274.939 170.968 272.905 170.968 270.334C170.968 267.764 172.977 265.73 175.395 265.73C177.813 265.73 179.823 267.764 179.823 270.334Z" stroke="white" stroke-width="1.77105"/>
<path d="M323.645 394.012L319.023 399.993M323.645 394.012L333.432 397.818M323.645 394.012L313.042 394.827M319.023 399.993L313.042 394.827M319.023 399.993L320.118 411.88M319.023 399.993L333.432 397.818M319.023 399.993L309.508 408.965M313.042 394.827L302.167 401.08M320.118 411.88L309.508 408.965M320.118 411.88L323.645 418.208M320.118 411.88L331.257 413.043M302.167 401.08L309.508 408.965M302.167 401.08L297.817 408.965M309.508 408.965H297.817M309.508 408.965L310.867 423.374M297.817 408.965L300.808 419.024L310.867 423.374M323.645 418.208L331.257 413.043M323.645 418.208L311.216 422.872L310.867 423.374M323.645 418.208L310.662 429.083L310.867 423.374M331.257 413.043L339.142 406.518L333.432 397.818M331.257 413.043L333.432 397.818" stroke="#B5F3FF" stroke-width="1.87839" stroke-linecap="round" stroke-linejoin="round"/>
<rect x="492.602" y="314.903" width="5.90351" height="5.90351" rx="1.1807" transform="rotate(52.6584 492.602 314.903)" fill="white"/>
<path d="M203.354 355.252L192.511 342.524C188.876 338.257 187.529 332.483 188.889 327.045V327.045" stroke="white" stroke-width="1.44652" stroke-linecap="round"/>
<defs>
<filter id="filter0_f_806_3396" x="106.68" y="230.863" width="420.33" height="334.138" filterUnits="userSpaceOnUse" color-interpolation-filters="sRGB">
<feFlood flood-opacity="0" result="BackgroundImageFix"/>
<feBlend mode="normal" in="SourceGraphic" in2="BackgroundImageFix" result="shape"/>
<feGaussianBlur stdDeviation="11.807" result="effect1_foregroundBlur_806_3396"/>
</filter>
<filter id="filter1_f_806_3396" x="101.364" y="225.546" width="430.962" height="344.771" filterUnits="userSpaceOnUse" color-interpolation-filters="sRGB">
<feFlood flood-opacity="0" result="BackgroundImageFix"/>
<feBlend mode="normal" in="SourceGraphic" in2="BackgroundImageFix" result="shape"/>
<feGaussianBlur stdDeviation="14.4652" result="effect1_foregroundBlur_806_3396"/>
</filter>
<filter id="filter2_f_806_3396" x="336.922" y="266.039" width="155.575" height="262.554" filterUnits="userSpaceOnUse" color-interpolation-filters="sRGB">
<feFlood flood-opacity="0" result="BackgroundImageFix"/>
<feBlend mode="normal" in="SourceGraphic" in2="BackgroundImageFix" result="shape"/>
<feGaussianBlur stdDeviation="5.90351" result="effect1_foregroundBlur_806_3396"/>
</filter>
<linearGradient id="paint0_linear_806_3396" x1="394.042" y1="422.347" x2="115.987" y2="422.347" gradientUnits="userSpaceOnUse">
<stop stop-color="#F7DA28"/>
<stop offset="1" stop-color="#F7DA28" stop-opacity="0"/>
</linearGradient>
<linearGradient id="paint1_linear_806_3396" x1="394.042" y1="422.347" x2="115.987" y2="422.347" gradientUnits="userSpaceOnUse">
<stop stop-color="white"/>
<stop offset="1" stop-color="white" stop-opacity="0"/>
</linearGradient>
<linearGradient id="paint2_linear_806_3396" x1="394.093" y1="422.272" x2="116.903" y2="422.272" gradientUnits="userSpaceOnUse">
<stop stop-color="#1377B1"/>
<stop offset="0.234375" stop-color="#1367B1" stop-opacity="0.85"/>
<stop offset="0.880208" stop-color="#1367B1" stop-opacity="0.38"/>
</linearGradient>
</defs>
</svg>
