<svg width="1080" height="1080" viewBox="0 0 1080 1080" fill="none" xmlns="http://www.w3.org/2000/svg">
<g filter="url(#filter0_f_806_3550)">
<mask id="path-1-inside-1_806_3550" fill="white">
<path fill-rule="evenodd" clip-rule="evenodd" d="M306.572 226.675L124.874 214.825L178.857 528.189L294.722 587.438L252.59 734.904L281.556 821.803L397.422 854.719L427.706 813.779L445.47 789.765L487.596 729.696L500.3 684.498V666.418L494.855 653.763L480.336 633.875L471.262 621.22L465.818 604.948L464.003 581.445V565.174L469.447 545.286L478.522 530.823L489.411 518.167L509.374 503.704L527.523 498.28L540.226 496.472L560.19 494.664L580.153 496.472L596.487 503.704L611.006 512.743L620.08 523.591L627.339 534.439L632.784 547.094L636.413 559.75V568.79L634.599 576.021L632.784 585.061L640.043 597.717L652.747 617.604V623.028L638.228 630.26V632.068L641.858 641.107V644.723L638.228 647.377L641.858 651.955L634.599 659.187L636.413 671.842V677.266L632.784 680.882L627.339 682.69H611.006L592.857 684.498L587.413 688.114L585.598 693.538V713.425L589.227 729.696L639.136 795.686L645.594 804.954L684.452 854.719L696.303 851.352L800.318 821.803L829.284 734.904L787.151 587.438L903.017 528.189L957 214.825L775.301 226.675L663.386 329.374L579.857 409.69L560.687 428.123L540.937 462.356L521.187 428.123L502.017 409.69L418.488 329.374L306.572 226.675Z"/>
</mask>
<path fill-rule="evenodd" clip-rule="evenodd" d="M306.572 226.675L124.874 214.825L178.857 528.189L294.722 587.438L252.59 734.904L281.556 821.803L397.422 854.719L427.706 813.779L445.47 789.765L487.596 729.696L500.3 684.498V666.418L494.855 653.763L480.336 633.875L471.262 621.22L465.818 604.948L464.003 581.445V565.174L469.447 545.286L478.522 530.823L489.411 518.167L509.374 503.704L527.523 498.28L540.226 496.472L560.19 494.664L580.153 496.472L596.487 503.704L611.006 512.743L620.08 523.591L627.339 534.439L632.784 547.094L636.413 559.75V568.79L634.599 576.021L632.784 585.061L640.043 597.717L652.747 617.604V623.028L638.228 630.26V632.068L641.858 641.107V644.723L638.228 647.377L641.858 651.955L634.599 659.187L636.413 671.842V677.266L632.784 680.882L627.339 682.69H611.006L592.857 684.498L587.413 688.114L585.598 693.538V713.425L589.227 729.696L639.136 795.686L645.594 804.954L684.452 854.719L696.303 851.352L800.318 821.803L829.284 734.904L787.151 587.438L903.017 528.189L957 214.825L775.301 226.675L663.386 329.374L579.857 409.69L560.687 428.123L540.937 462.356L521.187 428.123L502.017 409.69L418.488 329.374L306.572 226.675Z" fill="url(#paint0_linear_806_3550)" fill-opacity="0.39"/>
<path d="M124.874 214.825L125.045 212.197L121.712 211.98L122.279 215.272L124.874 214.825ZM306.572 226.675L308.353 224.735L307.669 224.108L306.744 224.047L306.572 226.675ZM178.857 528.189L176.262 528.636L176.485 529.934L177.658 530.534L178.857 528.189ZM294.722 587.438L297.254 588.162L297.849 586.08L295.921 585.094L294.722 587.438ZM252.59 734.904L250.058 734.18L249.834 734.964L250.091 735.736L252.59 734.904ZM281.556 821.803L279.058 822.636L279.498 823.956L280.836 824.336L281.556 821.803ZM397.422 854.719L396.702 857.252L398.455 857.75L399.539 856.285L397.422 854.719ZM427.706 813.779L425.589 812.213L427.706 813.779ZM445.47 789.765L447.587 791.331L447.607 791.304L447.626 791.277L445.47 789.765ZM487.596 729.696L489.752 731.208L490.009 730.841L490.131 730.409L487.596 729.696ZM500.3 684.498L502.835 685.21L502.933 684.861V684.498H500.3ZM500.3 666.418H502.933V665.876L502.719 665.378L500.3 666.418ZM494.855 653.763L497.274 652.722L497.157 652.45L496.982 652.21L494.855 653.763ZM480.336 633.875L478.196 635.41L478.203 635.419L478.21 635.428L480.336 633.875ZM471.262 621.22L468.765 622.055L468.891 622.432L469.122 622.754L471.262 621.22ZM465.818 604.948L463.192 605.151L463.217 605.475L463.32 605.784L465.818 604.948ZM464.003 581.445H461.37V581.547L461.377 581.648L464.003 581.445ZM464.003 565.174L461.463 564.478L461.37 564.82V565.174H464.003ZM469.447 545.286L467.217 543.887L467.01 544.216L466.908 544.591L469.447 545.286ZM478.522 530.823L476.525 529.105L476.396 529.255L476.291 529.423L478.522 530.823ZM489.411 518.167L487.866 516.035L487.616 516.216L487.415 516.45L489.411 518.167ZM509.374 503.704L508.62 501.18L508.191 501.309L507.829 501.571L509.374 503.704ZM527.523 498.28L527.152 495.673L526.957 495.7L526.768 495.757L527.523 498.28ZM540.226 496.472L539.989 493.849L539.922 493.855L539.855 493.865L540.226 496.472ZM560.19 494.664L560.427 492.041L560.19 492.02L559.952 492.041L560.19 494.664ZM580.153 496.472L581.219 494.064L580.823 493.888L580.391 493.849L580.153 496.472ZM596.487 503.704L597.879 501.468L597.722 501.37L597.553 501.296L596.487 503.704ZM611.006 512.743L613.025 511.054L612.755 510.73L612.397 510.508L611.006 512.743ZM620.08 523.591L622.268 522.126L622.19 522.009L622.1 521.901L620.08 523.591ZM627.339 534.439L629.758 533.398L629.662 533.175L629.528 532.974L627.339 534.439ZM632.784 547.094L635.315 546.368L635.269 546.207L635.203 546.053L632.784 547.094ZM636.413 559.75H639.047V559.38L638.945 559.024L636.413 559.75ZM636.413 568.79L638.968 569.43L639.047 569.115V568.79H636.413ZM634.599 576.021L632.044 575.38L632.029 575.441L632.017 575.503L634.599 576.021ZM632.784 585.061L630.202 584.543L630.007 585.513L630.5 586.371L632.784 585.061ZM640.043 597.717L637.759 599.027L637.79 599.081L637.824 599.134L640.043 597.717ZM652.747 617.604H655.38V616.835L654.966 616.186L652.747 617.604ZM652.747 623.028L653.921 625.385L655.38 624.658V623.028H652.747ZM638.228 630.26L637.054 627.902L635.595 628.629V630.26H638.228ZM638.228 632.068H635.595V632.576L635.785 633.049L638.228 632.068ZM641.858 641.107H644.491V640.598L644.302 640.126L641.858 641.107ZM641.858 644.723L643.412 646.849L644.491 646.06V644.723H641.858ZM638.228 647.377L636.674 645.251L634.464 646.867L636.165 649.013L638.228 647.377ZM641.858 651.955L643.716 653.82L645.382 652.161L643.921 650.319L641.858 651.955ZM634.599 659.187L632.74 657.321L631.804 658.253L631.992 659.56L634.599 659.187ZM636.413 671.842H639.047V671.654L639.02 671.468L636.413 671.842ZM636.413 677.266L638.272 679.132L639.047 678.36V677.266H636.413ZM632.784 680.882L633.614 683.381L634.203 683.186L634.642 682.748L632.784 680.882ZM627.339 682.69V685.323H627.765L628.169 685.189L627.339 682.69ZM611.006 682.69V680.057H610.875L610.744 680.07L611.006 682.69ZM592.857 684.498L592.596 681.878L591.945 681.942L591.4 682.304L592.857 684.498ZM587.413 688.114L585.956 685.92L585.202 686.421L584.915 687.278L587.413 688.114ZM585.598 693.538L583.1 692.702L582.964 693.109V693.538H585.598ZM585.598 713.425H582.964V713.715L583.028 713.998L585.598 713.425ZM589.227 729.696L586.657 730.27L586.782 730.828L587.127 731.285L589.227 729.696ZM639.136 795.686L641.296 794.181L641.267 794.139L641.236 794.098L639.136 795.686ZM645.594 804.954L643.434 806.459L643.475 806.518L643.519 806.574L645.594 804.954ZM684.452 854.719L682.377 856.34L683.467 857.737L685.172 857.252L684.452 854.719ZM696.303 851.352L695.584 848.819L696.303 851.352ZM800.318 821.803L801.037 824.336L802.376 823.956L802.816 822.636L800.318 821.803ZM829.284 734.904L831.782 735.736L832.04 734.964L831.816 734.18L829.284 734.904ZM787.151 587.438L785.952 585.094L784.024 586.08L784.619 588.162L787.151 587.438ZM903.017 528.189L904.216 530.534L905.388 529.934L905.612 528.636L903.017 528.189ZM957 214.825L959.595 215.272L960.162 211.98L956.828 212.197L957 214.825ZM775.301 226.675L775.13 224.047L774.204 224.108L773.521 224.735L775.301 226.675ZM663.386 329.374L661.605 327.434L661.583 327.455L661.561 327.476L663.386 329.374ZM579.857 409.69L581.682 411.589L579.857 409.69ZM560.687 428.123L558.862 426.225L558.592 426.484L558.406 426.807L560.687 428.123ZM540.937 462.356L538.656 463.672L540.937 467.626L543.218 463.672L540.937 462.356ZM521.187 428.123L523.468 426.807L523.281 426.484L523.012 426.225L521.187 428.123ZM502.017 409.69L500.192 411.589L502.017 409.69ZM418.488 329.374L420.313 327.476L420.291 327.455L420.268 327.434L418.488 329.374ZM124.703 217.453L306.401 229.303L306.744 224.047L125.045 212.197L124.703 217.453ZM181.452 527.742L127.469 214.378L122.279 215.272L176.262 528.636L181.452 527.742ZM295.921 585.094L180.056 525.844L177.658 530.534L293.524 589.783L295.921 585.094ZM255.122 735.627L297.254 588.162L292.19 586.715L250.058 734.18L255.122 735.627ZM284.054 820.97L255.088 734.071L250.091 735.736L279.058 822.636L284.054 820.97ZM398.141 852.186L282.276 819.27L280.836 824.336L396.702 857.252L398.141 852.186ZM425.589 812.213L395.305 853.153L399.539 856.285L429.823 815.345L425.589 812.213ZM443.353 788.199L425.589 812.213L429.823 815.345L447.587 791.331L443.353 788.199ZM447.626 791.277L489.752 731.208L485.44 728.185L443.314 788.253L447.626 791.277ZM490.131 730.409L502.835 685.21L497.765 683.785L485.061 728.984L490.131 730.409ZM502.933 684.498V666.418H497.667V684.498H502.933ZM502.719 665.378L497.274 652.722L492.436 654.803L497.881 667.459L502.719 665.378ZM496.982 652.21L482.463 632.323L478.21 635.428L492.728 655.316L496.982 652.21ZM482.477 632.341L473.402 619.685L469.122 622.754L478.196 635.41L482.477 632.341ZM473.759 620.384L468.315 604.113L463.32 605.784L468.765 622.055L473.759 620.384ZM468.443 604.746L466.628 581.242L461.377 581.648L463.192 605.151L468.443 604.746ZM466.636 581.445V565.174H461.37V581.445H466.636ZM466.543 565.869L471.987 545.982L466.908 544.591L461.463 564.478L466.543 565.869ZM471.678 546.686L480.752 532.222L476.291 529.423L467.217 543.887L471.678 546.686ZM480.518 532.54L491.407 519.885L487.415 516.45L476.525 529.105L480.518 532.54ZM490.956 520.3L510.919 505.836L507.829 501.571L487.866 516.035L490.956 520.3ZM510.128 506.227L528.277 500.803L526.768 495.757L508.62 501.18L510.128 506.227ZM527.894 500.887L540.597 499.079L539.855 493.865L527.152 495.673L527.894 500.887ZM540.464 499.094L560.427 497.286L559.952 492.041L539.989 493.849L540.464 499.094ZM559.952 497.286L579.916 499.094L580.391 493.849L560.427 492.041L559.952 497.286ZM579.087 498.88L595.421 506.111L597.553 501.296L581.219 494.064L579.087 498.88ZM595.095 505.939L609.614 514.979L612.397 510.508L597.879 501.468L595.095 505.939ZM608.986 514.433L618.06 525.28L622.1 521.901L613.025 511.054L608.986 514.433ZM617.891 525.055L625.151 535.903L629.528 532.974L622.268 522.126L617.891 525.055ZM624.92 535.479L630.365 548.135L635.203 546.053L629.758 533.398L624.92 535.479ZM630.252 547.82L633.882 560.476L638.945 559.024L635.315 546.368L630.252 547.82ZM633.78 559.75V568.79H639.047V559.75H633.78ZM633.859 568.149L632.044 575.38L637.153 576.662L638.968 569.43L633.859 568.149ZM632.017 575.503L630.202 584.543L635.366 585.579L637.18 576.54L632.017 575.503ZM630.5 586.371L637.759 599.027L642.327 596.406L635.068 583.751L630.5 586.371ZM637.824 599.134L650.528 619.022L654.966 616.186L642.262 596.299L637.824 599.134ZM650.114 617.604V623.028H655.38V617.604H650.114ZM651.573 620.671L637.054 627.902L639.402 632.617L653.921 625.385L651.573 620.671ZM635.595 630.26V632.068H640.862V630.26H635.595ZM635.785 633.049L639.414 642.088L644.302 640.126L640.672 631.086L635.785 633.049ZM639.225 641.107V644.723H644.491V641.107H639.225ZM640.304 642.597L636.674 645.251L639.782 649.502L643.412 646.849L640.304 642.597ZM636.165 649.013L639.794 653.591L643.921 650.319L640.292 645.741L636.165 649.013ZM640 650.089L632.74 657.321L636.457 661.052L643.716 653.82L640 650.089ZM631.992 659.56L633.807 672.216L639.02 671.468L637.205 658.813L631.992 659.56ZM633.78 671.842V677.266H639.047V671.842H633.78ZM634.555 675.401L630.925 679.016L634.642 682.748L638.272 679.132L634.555 675.401ZM631.954 678.383L626.509 680.191L628.169 685.189L633.614 683.381L631.954 678.383ZM627.339 680.057H611.006V685.323H627.339V680.057ZM610.744 680.07L592.596 681.878L593.118 687.118L611.267 685.31L610.744 680.07ZM591.4 682.304L585.956 685.92L588.869 690.307L594.314 686.691L591.4 682.304ZM584.915 687.278L583.1 692.702L588.095 694.373L589.91 688.949L584.915 687.278ZM582.964 693.538V713.425H588.231V693.538H582.964ZM583.028 713.998L586.657 730.27L591.797 729.123L588.168 712.852L583.028 713.998ZM587.127 731.285L637.035 797.275L641.236 794.098L591.328 728.108L587.127 731.285ZM636.975 797.192L643.434 806.459L647.755 803.448L641.296 794.181L636.975 797.192ZM686.528 853.099L647.67 803.333L643.519 806.574L682.377 856.34L686.528 853.099ZM695.584 848.819L683.733 852.186L685.172 857.252L697.023 853.886L695.584 848.819ZM799.598 819.27L695.584 848.819L697.023 853.886L801.037 824.336L799.598 819.27ZM826.786 734.071L797.82 820.97L802.816 822.636L831.782 735.736L826.786 734.071ZM784.619 588.162L826.752 735.627L831.816 734.18L789.683 586.715L784.619 588.162ZM901.818 525.844L785.952 585.094L788.35 589.783L904.216 530.534L901.818 525.844ZM954.405 214.378L900.422 527.742L905.612 528.636L959.595 215.272L954.405 214.378ZM775.473 229.303L957.171 217.453L956.828 212.197L775.13 224.047L775.473 229.303ZM665.166 331.314L777.082 228.615L773.521 224.735L661.605 327.434L665.166 331.314ZM581.682 411.589L665.211 331.272L661.561 327.476L578.032 407.792L581.682 411.589ZM562.512 430.021L581.682 411.589L578.032 407.792L558.862 426.225L562.512 430.021ZM543.218 463.672L562.968 429.439L558.406 426.807L538.656 461.04L543.218 463.672ZM518.906 429.439L538.656 463.672L543.218 461.04L523.468 426.807L518.906 429.439ZM500.192 411.589L519.362 430.021L523.012 426.225L503.842 407.792L500.192 411.589ZM416.663 331.272L500.192 411.589L503.842 407.792L420.313 327.476L416.663 331.272ZM304.792 228.615L416.708 331.314L420.268 327.434L308.353 224.735L304.792 228.615Z" fill="#65E6FF" mask="url(#path-1-inside-1_806_3550)"/>
</g>
<g filter="url(#filter1_f_806_3550)">
<mask id="path-3-inside-2_806_3550" fill="white">
<path fill-rule="evenodd" clip-rule="evenodd" d="M306.572 226.675L124.874 214.825L178.857 528.189L294.722 587.438L252.59 734.904L281.556 821.803L397.422 854.719L427.706 813.779L445.47 789.765L487.596 729.696L500.3 684.498V666.418L494.855 653.763L480.336 633.875L471.262 621.22L465.818 604.948L464.003 581.445V565.174L469.447 545.286L478.522 530.823L489.411 518.167L509.374 503.704L527.523 498.28L540.226 496.472L560.19 494.664L580.153 496.472L596.487 503.704L611.006 512.743L620.08 523.591L627.339 534.439L632.784 547.094L636.413 559.75V568.79L634.599 576.021L632.784 585.061L640.043 597.717L652.747 617.604V623.028L638.228 630.26V632.068L641.858 641.107V644.723L638.228 647.377L641.858 651.955L634.599 659.187L636.413 671.842V677.266L632.784 680.882L627.339 682.69H611.006L592.857 684.498L587.413 688.114L585.598 693.538V713.425L589.227 729.696L639.136 795.686L645.594 804.954L684.452 854.719L696.303 851.352L800.318 821.803L829.284 734.904L787.151 587.438L903.017 528.189L957 214.825L775.301 226.675L663.386 329.374L579.857 409.69L560.687 428.123L540.937 462.356L521.187 428.123L502.017 409.69L418.488 329.374L306.572 226.675Z"/>
</mask>
<path fill-rule="evenodd" clip-rule="evenodd" d="M306.572 226.675L124.874 214.825L178.857 528.189L294.722 587.438L252.59 734.904L281.556 821.803L397.422 854.719L427.706 813.779L445.47 789.765L487.596 729.696L500.3 684.498V666.418L494.855 653.763L480.336 633.875L471.262 621.22L465.818 604.948L464.003 581.445V565.174L469.447 545.286L478.522 530.823L489.411 518.167L509.374 503.704L527.523 498.28L540.226 496.472L560.19 494.664L580.153 496.472L596.487 503.704L611.006 512.743L620.08 523.591L627.339 534.439L632.784 547.094L636.413 559.75V568.79L634.599 576.021L632.784 585.061L640.043 597.717L652.747 617.604V623.028L638.228 630.26V632.068L641.858 641.107V644.723L638.228 647.377L641.858 651.955L634.599 659.187L636.413 671.842V677.266L632.784 680.882L627.339 682.69H611.006L592.857 684.498L587.413 688.114L585.598 693.538V713.425L589.227 729.696L639.136 795.686L645.594 804.954L684.452 854.719L696.303 851.352L800.318 821.803L829.284 734.904L787.151 587.438L903.017 528.189L957 214.825L775.301 226.675L663.386 329.374L579.857 409.69L560.687 428.123L540.937 462.356L521.187 428.123L502.017 409.69L418.488 329.374L306.572 226.675Z" fill="url(#paint1_linear_806_3550)" fill-opacity="0.6"/>
<path d="M124.874 214.825L125.045 212.197L121.712 211.98L122.279 215.272L124.874 214.825ZM306.572 226.675L308.353 224.735L307.669 224.108L306.744 224.047L306.572 226.675ZM178.857 528.189L176.262 528.636L176.485 529.934L177.658 530.534L178.857 528.189ZM294.722 587.438L297.254 588.162L297.849 586.08L295.921 585.094L294.722 587.438ZM252.59 734.904L250.058 734.18L249.834 734.964L250.091 735.736L252.59 734.904ZM281.556 821.803L279.058 822.636L279.498 823.956L280.836 824.336L281.556 821.803ZM397.422 854.719L396.702 857.252L398.455 857.75L399.539 856.285L397.422 854.719ZM427.706 813.779L425.589 812.213L427.706 813.779ZM445.47 789.765L447.587 791.331L447.607 791.304L447.626 791.277L445.47 789.765ZM487.596 729.696L489.752 731.208L490.009 730.841L490.131 730.409L487.596 729.696ZM500.3 684.498L502.835 685.21L502.933 684.861V684.498H500.3ZM500.3 666.418H502.933V665.876L502.719 665.378L500.3 666.418ZM494.855 653.763L497.274 652.722L497.157 652.45L496.982 652.21L494.855 653.763ZM480.336 633.875L478.196 635.41L478.203 635.419L478.21 635.428L480.336 633.875ZM471.262 621.22L468.765 622.055L468.891 622.432L469.122 622.754L471.262 621.22ZM465.818 604.948L463.192 605.151L463.217 605.475L463.32 605.784L465.818 604.948ZM464.003 581.445H461.37V581.547L461.377 581.648L464.003 581.445ZM464.003 565.174L461.463 564.478L461.37 564.82V565.174H464.003ZM469.447 545.286L467.217 543.887L467.01 544.216L466.908 544.591L469.447 545.286ZM478.522 530.823L476.525 529.105L476.396 529.255L476.291 529.423L478.522 530.823ZM489.411 518.167L487.866 516.035L487.616 516.216L487.415 516.45L489.411 518.167ZM509.374 503.704L508.62 501.18L508.191 501.309L507.829 501.571L509.374 503.704ZM527.523 498.28L527.152 495.673L526.957 495.7L526.768 495.757L527.523 498.28ZM540.226 496.472L539.989 493.849L539.922 493.855L539.855 493.865L540.226 496.472ZM560.19 494.664L560.427 492.041L560.19 492.02L559.952 492.041L560.19 494.664ZM580.153 496.472L581.219 494.064L580.823 493.888L580.391 493.849L580.153 496.472ZM596.487 503.704L597.879 501.468L597.722 501.37L597.553 501.296L596.487 503.704ZM611.006 512.743L613.025 511.054L612.755 510.73L612.397 510.508L611.006 512.743ZM620.08 523.591L622.268 522.126L622.19 522.009L622.1 521.901L620.08 523.591ZM627.339 534.439L629.758 533.398L629.662 533.175L629.528 532.974L627.339 534.439ZM632.784 547.094L635.315 546.368L635.269 546.207L635.203 546.053L632.784 547.094ZM636.413 559.75H639.047V559.38L638.945 559.024L636.413 559.75ZM636.413 568.79L638.968 569.43L639.047 569.115V568.79H636.413ZM634.599 576.021L632.044 575.38L632.029 575.441L632.017 575.503L634.599 576.021ZM632.784 585.061L630.202 584.543L630.007 585.513L630.5 586.371L632.784 585.061ZM640.043 597.717L637.759 599.027L637.79 599.081L637.824 599.134L640.043 597.717ZM652.747 617.604H655.38V616.835L654.966 616.186L652.747 617.604ZM652.747 623.028L653.921 625.385L655.38 624.658V623.028H652.747ZM638.228 630.26L637.054 627.902L635.595 628.629V630.26H638.228ZM638.228 632.068H635.595V632.576L635.785 633.049L638.228 632.068ZM641.858 641.107H644.491V640.598L644.302 640.126L641.858 641.107ZM641.858 644.723L643.412 646.849L644.491 646.06V644.723H641.858ZM638.228 647.377L636.674 645.251L634.464 646.867L636.165 649.013L638.228 647.377ZM641.858 651.955L643.716 653.82L645.382 652.161L643.921 650.319L641.858 651.955ZM634.599 659.187L632.74 657.321L631.804 658.253L631.992 659.56L634.599 659.187ZM636.413 671.842H639.047V671.654L639.02 671.468L636.413 671.842ZM636.413 677.266L638.272 679.132L639.047 678.36V677.266H636.413ZM632.784 680.882L633.614 683.381L634.203 683.186L634.642 682.748L632.784 680.882ZM627.339 682.69V685.323H627.765L628.169 685.189L627.339 682.69ZM611.006 682.69V680.057H610.875L610.744 680.07L611.006 682.69ZM592.857 684.498L592.596 681.878L591.945 681.942L591.4 682.304L592.857 684.498ZM587.413 688.114L585.956 685.92L585.202 686.421L584.915 687.278L587.413 688.114ZM585.598 693.538L583.1 692.702L582.964 693.109V693.538H585.598ZM585.598 713.425H582.964V713.715L583.028 713.998L585.598 713.425ZM589.227 729.696L586.657 730.27L586.782 730.828L587.127 731.285L589.227 729.696ZM639.136 795.686L641.296 794.181L641.267 794.139L641.236 794.098L639.136 795.686ZM645.594 804.954L643.434 806.459L643.475 806.518L643.519 806.574L645.594 804.954ZM684.452 854.719L682.377 856.34L683.467 857.737L685.172 857.252L684.452 854.719ZM696.303 851.352L695.584 848.819L696.303 851.352ZM800.318 821.803L801.037 824.336L802.376 823.956L802.816 822.636L800.318 821.803ZM829.284 734.904L831.782 735.736L832.04 734.964L831.816 734.18L829.284 734.904ZM787.151 587.438L785.952 585.094L784.024 586.08L784.619 588.162L787.151 587.438ZM903.017 528.189L904.216 530.534L905.388 529.934L905.612 528.636L903.017 528.189ZM957 214.825L959.595 215.272L960.162 211.98L956.828 212.197L957 214.825ZM775.301 226.675L775.13 224.047L774.204 224.108L773.521 224.735L775.301 226.675ZM663.386 329.374L661.605 327.434L661.583 327.455L661.561 327.476L663.386 329.374ZM579.857 409.69L581.682 411.589L579.857 409.69ZM560.687 428.123L558.862 426.225L558.592 426.484L558.406 426.807L560.687 428.123ZM540.937 462.356L538.656 463.672L540.937 467.626L543.218 463.672L540.937 462.356ZM521.187 428.123L523.468 426.807L523.281 426.484L523.012 426.225L521.187 428.123ZM502.017 409.69L500.192 411.589L502.017 409.69ZM418.488 329.374L420.313 327.476L420.291 327.455L420.268 327.434L418.488 329.374ZM124.703 217.453L306.401 229.303L306.744 224.047L125.045 212.197L124.703 217.453ZM181.452 527.742L127.469 214.378L122.279 215.272L176.262 528.636L181.452 527.742ZM295.921 585.094L180.056 525.844L177.658 530.534L293.524 589.783L295.921 585.094ZM255.122 735.627L297.254 588.162L292.19 586.715L250.058 734.18L255.122 735.627ZM284.054 820.97L255.088 734.071L250.091 735.736L279.058 822.636L284.054 820.97ZM398.141 852.186L282.276 819.27L280.836 824.336L396.702 857.252L398.141 852.186ZM425.589 812.213L395.305 853.153L399.539 856.285L429.823 815.345L425.589 812.213ZM443.353 788.199L425.589 812.213L429.823 815.345L447.587 791.331L443.353 788.199ZM447.626 791.277L489.752 731.208L485.44 728.185L443.314 788.253L447.626 791.277ZM490.131 730.409L502.835 685.21L497.765 683.785L485.061 728.984L490.131 730.409ZM502.933 684.498V666.418H497.667V684.498H502.933ZM502.719 665.378L497.274 652.722L492.436 654.803L497.881 667.459L502.719 665.378ZM496.982 652.21L482.463 632.323L478.21 635.428L492.728 655.316L496.982 652.21ZM482.477 632.341L473.402 619.685L469.122 622.754L478.196 635.41L482.477 632.341ZM473.759 620.384L468.315 604.113L463.32 605.784L468.765 622.055L473.759 620.384ZM468.443 604.746L466.628 581.242L461.377 581.648L463.192 605.151L468.443 604.746ZM466.636 581.445V565.174H461.37V581.445H466.636ZM466.543 565.869L471.987 545.982L466.908 544.591L461.463 564.478L466.543 565.869ZM471.678 546.686L480.752 532.222L476.291 529.423L467.217 543.887L471.678 546.686ZM480.518 532.54L491.407 519.885L487.415 516.45L476.525 529.105L480.518 532.54ZM490.956 520.3L510.919 505.836L507.829 501.571L487.866 516.035L490.956 520.3ZM510.128 506.227L528.277 500.803L526.768 495.757L508.62 501.18L510.128 506.227ZM527.894 500.887L540.597 499.079L539.855 493.865L527.152 495.673L527.894 500.887ZM540.464 499.094L560.427 497.286L559.952 492.041L539.989 493.849L540.464 499.094ZM559.952 497.286L579.916 499.094L580.391 493.849L560.427 492.041L559.952 497.286ZM579.087 498.88L595.421 506.111L597.553 501.296L581.219 494.064L579.087 498.88ZM595.095 505.939L609.614 514.979L612.397 510.508L597.879 501.468L595.095 505.939ZM608.986 514.433L618.06 525.28L622.1 521.901L613.025 511.054L608.986 514.433ZM617.891 525.055L625.151 535.903L629.528 532.974L622.268 522.126L617.891 525.055ZM624.92 535.479L630.365 548.135L635.203 546.053L629.758 533.398L624.92 535.479ZM630.252 547.82L633.882 560.476L638.945 559.024L635.315 546.368L630.252 547.82ZM633.78 559.75V568.79H639.047V559.75H633.78ZM633.859 568.149L632.044 575.38L637.153 576.662L638.968 569.43L633.859 568.149ZM632.017 575.503L630.202 584.543L635.366 585.579L637.18 576.54L632.017 575.503ZM630.5 586.371L637.759 599.027L642.327 596.406L635.068 583.751L630.5 586.371ZM637.824 599.134L650.528 619.022L654.966 616.186L642.262 596.299L637.824 599.134ZM650.114 617.604V623.028H655.38V617.604H650.114ZM651.573 620.671L637.054 627.902L639.402 632.617L653.921 625.385L651.573 620.671ZM635.595 630.26V632.068H640.862V630.26H635.595ZM635.785 633.049L639.414 642.088L644.302 640.126L640.672 631.086L635.785 633.049ZM639.225 641.107V644.723H644.491V641.107H639.225ZM640.304 642.597L636.674 645.251L639.782 649.502L643.412 646.849L640.304 642.597ZM636.165 649.013L639.794 653.591L643.921 650.319L640.292 645.741L636.165 649.013ZM640 650.089L632.74 657.321L636.457 661.052L643.716 653.82L640 650.089ZM631.992 659.56L633.807 672.216L639.02 671.468L637.205 658.813L631.992 659.56ZM633.78 671.842V677.266H639.047V671.842H633.78ZM634.555 675.401L630.925 679.016L634.642 682.748L638.272 679.132L634.555 675.401ZM631.954 678.383L626.509 680.191L628.169 685.189L633.614 683.381L631.954 678.383ZM627.339 680.057H611.006V685.323H627.339V680.057ZM610.744 680.07L592.596 681.878L593.118 687.118L611.267 685.31L610.744 680.07ZM591.4 682.304L585.956 685.92L588.869 690.307L594.314 686.691L591.4 682.304ZM584.915 687.278L583.1 692.702L588.095 694.373L589.91 688.949L584.915 687.278ZM582.964 693.538V713.425H588.231V693.538H582.964ZM583.028 713.998L586.657 730.27L591.797 729.123L588.168 712.852L583.028 713.998ZM587.127 731.285L637.035 797.275L641.236 794.098L591.328 728.108L587.127 731.285ZM636.975 797.192L643.434 806.459L647.755 803.448L641.296 794.181L636.975 797.192ZM686.528 853.099L647.67 803.333L643.519 806.574L682.377 856.34L686.528 853.099ZM695.584 848.819L683.733 852.186L685.172 857.252L697.023 853.886L695.584 848.819ZM799.598 819.27L695.584 848.819L697.023 853.886L801.037 824.336L799.598 819.27ZM826.786 734.071L797.82 820.97L802.816 822.636L831.782 735.736L826.786 734.071ZM784.619 588.162L826.752 735.627L831.816 734.18L789.683 586.715L784.619 588.162ZM901.818 525.844L785.952 585.094L788.35 589.783L904.216 530.534L901.818 525.844ZM954.405 214.378L900.422 527.742L905.612 528.636L959.595 215.272L954.405 214.378ZM775.473 229.303L957.171 217.453L956.828 212.197L775.13 224.047L775.473 229.303ZM665.166 331.314L777.082 228.615L773.521 224.735L661.605 327.434L665.166 331.314ZM581.682 411.589L665.211 331.272L661.561 327.476L578.032 407.792L581.682 411.589ZM562.512 430.021L581.682 411.589L578.032 407.792L558.862 426.225L562.512 430.021ZM543.218 463.672L562.968 429.439L558.406 426.807L538.656 461.04L543.218 463.672ZM518.906 429.439L538.656 463.672L543.218 461.04L523.468 426.807L518.906 429.439ZM500.192 411.589L519.362 430.021L523.012 426.225L503.842 407.792L500.192 411.589ZM416.663 331.272L500.192 411.589L503.842 407.792L420.313 327.476L416.663 331.272ZM304.792 228.615L416.708 331.314L420.268 327.434L308.353 224.735L304.792 228.615Z" fill="#65E6FF" mask="url(#path-3-inside-2_806_3550)"/>
</g>
<mask id="path-5-inside-3_806_3550" fill="white">
<path fill-rule="evenodd" clip-rule="evenodd" d="M774.466 227.444C775.007 226.947 775.703 226.649 776.437 226.602L952.917 215.092C954.999 214.956 956.661 216.803 956.306 218.859L903.292 526.599C903.12 527.6 902.486 528.462 901.582 528.924L789.515 586.231C788.142 586.933 787.458 588.508 787.881 589.99L829.011 733.945C829.19 734.57 829.176 735.234 828.97 735.851L800.858 820.186C800.521 821.198 799.705 821.978 798.679 822.269L696.303 851.354L686.542 854.126C685.279 854.485 683.925 854.043 683.117 853.009L645.604 804.965L639.135 795.682L595.9 738.516C591.502 732.702 588.405 726.01 586.818 718.895C586.006 715.257 585.597 711.54 585.597 707.813V695.373C585.597 694.155 585.794 692.945 586.181 691.789L586.208 691.707C586.988 689.376 588.524 687.371 590.571 686.012C592.072 685.015 593.793 684.401 595.586 684.222L611.005 682.686H625.004C626.55 682.686 628.086 682.438 629.554 681.95L631.023 681.463C632.18 681.078 633.233 680.43 634.097 679.569C635.579 678.092 636.413 676.086 636.413 673.993V672.633C636.413 672.104 636.375 671.575 636.3 671.051L635.121 662.831C634.792 660.535 635.566 658.219 637.209 656.582L639.945 653.856C641.034 652.771 641.136 651.041 640.18 649.836L640.104 649.74C639.08 648.448 639.335 646.563 640.666 645.59C641.415 645.043 641.857 644.171 641.857 643.244V642.1C641.857 641.442 641.731 640.789 641.486 640.178L638.388 632.463C638.282 632.199 638.227 631.918 638.227 631.633C638.227 630.789 638.705 630.018 639.461 629.641L649.448 624.667C651.469 623.66 652.746 621.597 652.746 619.339C652.746 618.203 652.421 617.092 651.81 616.135L640.042 597.713L637.371 593.055C634.413 587.899 633.428 581.845 634.598 576.017L635.383 572.887C636.067 570.163 636.413 567.365 636.413 564.557C636.413 561.365 635.966 558.189 635.086 555.121L632.783 547.09L630.271 541.251C628.32 536.716 625.957 532.37 623.211 528.268L620.079 523.587L619.284 522.637C613.799 516.08 607.307 510.437 600.05 505.919L596.486 503.7L591.979 501.704C584.147 498.237 575.801 496.074 567.271 495.301C562.559 494.875 557.819 494.875 553.107 495.301L540.226 496.468L533.247 497.461C529.435 498.003 525.67 498.829 521.981 499.932C513.636 502.426 505.771 506.31 498.717 511.42L497.064 512.618C491.979 516.302 487.341 520.568 483.246 525.328L482.281 526.449C479.778 529.358 477.497 532.451 475.457 535.702L475.182 536.141C471.379 542.202 468.486 548.789 466.597 555.691C464.875 561.982 464.002 568.475 464.002 574.997V581.441L465.222 597.238C465.617 602.356 466.641 607.406 468.27 612.274C470.253 618.202 473.113 623.799 476.756 628.879L480.336 633.872L491.983 649.825C493.891 652.439 495.5 655.26 496.779 658.233C499.101 663.631 500.299 669.445 500.299 675.321V677.245C500.299 682.055 499.639 686.842 498.338 691.473L491.314 716.46C488.853 725.219 484.927 733.497 479.703 740.946L445.37 789.902L427.705 813.783L398.751 852.925C397.952 854.005 396.567 854.477 395.275 854.11L283.197 822.269C282.171 821.978 281.356 821.198 281.018 820.186L252.907 735.851C252.701 735.234 252.686 734.57 252.865 733.945L293.995 589.99C294.419 588.508 293.734 586.933 292.362 586.231L180.295 528.924C179.391 528.462 178.757 527.6 178.584 526.599L126.96 226.926C125.897 220.757 130.881 215.217 137.128 215.625L305.44 226.602C306.174 226.649 306.869 226.947 307.411 227.444L418.489 329.375L502.251 409.914L520.859 427.807C521.077 428.017 521.265 428.257 521.417 428.52L538.144 457.513C539.385 459.665 542.491 459.665 543.733 457.513L560.459 428.52C560.611 428.257 560.799 428.017 561.018 427.807L579.863 409.687L663.387 329.375L774.466 227.444Z"/>
</mask>
<path fill-rule="evenodd" clip-rule="evenodd" d="M774.466 227.444C775.007 226.947 775.703 226.649 776.437 226.602L952.917 215.092C954.999 214.956 956.661 216.803 956.306 218.859L903.292 526.599C903.12 527.6 902.486 528.462 901.582 528.924L789.515 586.231C788.142 586.933 787.458 588.508 787.881 589.99L829.011 733.945C829.19 734.57 829.176 735.234 828.97 735.851L800.858 820.186C800.521 821.198 799.705 821.978 798.679 822.269L696.303 851.354L686.542 854.126C685.279 854.485 683.925 854.043 683.117 853.009L645.604 804.965L639.135 795.682L595.9 738.516C591.502 732.702 588.405 726.01 586.818 718.895C586.006 715.257 585.597 711.54 585.597 707.813V695.373C585.597 694.155 585.794 692.945 586.181 691.789L586.208 691.707C586.988 689.376 588.524 687.371 590.571 686.012C592.072 685.015 593.793 684.401 595.586 684.222L611.005 682.686H625.004C626.55 682.686 628.086 682.438 629.554 681.95L631.023 681.463C632.18 681.078 633.233 680.43 634.097 679.569C635.579 678.092 636.413 676.086 636.413 673.993V672.633C636.413 672.104 636.375 671.575 636.3 671.051L635.121 662.831C634.792 660.535 635.566 658.219 637.209 656.582L639.945 653.856C641.034 652.771 641.136 651.041 640.18 649.836L640.104 649.74C639.08 648.448 639.335 646.563 640.666 645.59C641.415 645.043 641.857 644.171 641.857 643.244V642.1C641.857 641.442 641.731 640.789 641.486 640.178L638.388 632.463C638.282 632.199 638.227 631.918 638.227 631.633C638.227 630.789 638.705 630.018 639.461 629.641L649.448 624.667C651.469 623.66 652.746 621.597 652.746 619.339C652.746 618.203 652.421 617.092 651.81 616.135L640.042 597.713L637.371 593.055C634.413 587.899 633.428 581.845 634.598 576.017L635.383 572.887C636.067 570.163 636.413 567.365 636.413 564.557C636.413 561.365 635.966 558.189 635.086 555.121L632.783 547.09L630.271 541.251C628.32 536.716 625.957 532.37 623.211 528.268L620.079 523.587L619.284 522.637C613.799 516.08 607.307 510.437 600.05 505.919L596.486 503.7L591.979 501.704C584.147 498.237 575.801 496.074 567.271 495.301C562.559 494.875 557.819 494.875 553.107 495.301L540.226 496.468L533.247 497.461C529.435 498.003 525.67 498.829 521.981 499.932C513.636 502.426 505.771 506.31 498.717 511.42L497.064 512.618C491.979 516.302 487.341 520.568 483.246 525.328L482.281 526.449C479.778 529.358 477.497 532.451 475.457 535.702L475.182 536.141C471.379 542.202 468.486 548.789 466.597 555.691C464.875 561.982 464.002 568.475 464.002 574.997V581.441L465.222 597.238C465.617 602.356 466.641 607.406 468.27 612.274C470.253 618.202 473.113 623.799 476.756 628.879L480.336 633.872L491.983 649.825C493.891 652.439 495.5 655.26 496.779 658.233C499.101 663.631 500.299 669.445 500.299 675.321V677.245C500.299 682.055 499.639 686.842 498.338 691.473L491.314 716.46C488.853 725.219 484.927 733.497 479.703 740.946L445.37 789.902L427.705 813.783L398.751 852.925C397.952 854.005 396.567 854.477 395.275 854.11L283.197 822.269C282.171 821.978 281.356 821.198 281.018 820.186L252.907 735.851C252.701 735.234 252.686 734.57 252.865 733.945L293.995 589.99C294.419 588.508 293.734 586.933 292.362 586.231L180.295 528.924C179.391 528.462 178.757 527.6 178.584 526.599L126.96 226.926C125.897 220.757 130.881 215.217 137.128 215.625L305.44 226.602C306.174 226.649 306.869 226.947 307.411 227.444L418.489 329.375L502.251 409.914L520.859 427.807C521.077 428.017 521.265 428.257 521.417 428.52L538.144 457.513C539.385 459.665 542.491 459.665 543.733 457.513L560.459 428.52C560.611 428.257 560.799 428.017 561.018 427.807L579.863 409.687L663.387 329.375L774.466 227.444Z" fill="url(#paint2_linear_806_3550)"/>
<path d="M696.303 851.354L695.421 848.25H695.421L696.303 851.354ZM645.604 804.965L642.957 806.81C642.991 806.858 643.025 806.905 643.061 806.951L645.604 804.965ZM639.135 795.682L641.782 793.838C641.758 793.804 641.733 793.77 641.708 793.736L639.135 795.682ZM595.9 738.516L593.327 740.462L595.9 738.516ZM586.818 718.895L583.669 719.597L586.818 718.895ZM586.181 691.789L589.24 692.813L589.24 692.812L586.181 691.789ZM586.208 691.707L583.149 690.683L583.149 690.684L586.208 691.707ZM590.571 686.012L588.786 683.324L590.571 686.012ZM595.586 684.222L595.906 687.432H595.906L595.586 684.222ZM611.005 682.686V679.46C610.898 679.46 610.791 679.465 610.685 679.476L611.005 682.686ZM629.554 681.95L628.537 678.889L628.537 678.889L629.554 681.95ZM631.023 681.463L632.039 684.524L632.039 684.524L631.023 681.463ZM634.097 679.569L631.82 677.284L631.82 677.284L634.097 679.569ZM636.3 671.051L639.493 670.593V670.593L636.3 671.051ZM635.121 662.831L638.314 662.373L635.121 662.831ZM637.209 656.582L639.486 658.867L637.209 656.582ZM639.945 653.856L642.222 656.141V656.141L639.945 653.856ZM640.18 649.836L642.708 647.832L642.708 647.832L640.18 649.836ZM640.104 649.74L637.576 651.744L637.576 651.744L640.104 649.74ZM640.666 645.59L642.57 648.194L642.57 648.194L640.666 645.59ZM641.486 640.178L638.492 641.38L638.492 641.38L641.486 640.178ZM638.388 632.463L635.394 633.665V633.665L638.388 632.463ZM639.461 629.641L638.022 626.754L638.022 626.754L639.461 629.641ZM649.448 624.667L650.886 627.555L649.448 624.667ZM651.81 616.135L654.529 614.398V614.398L651.81 616.135ZM640.042 597.713L637.244 599.318C637.269 599.362 637.296 599.406 637.324 599.449L640.042 597.713ZM637.371 593.055L640.169 591.45V591.45L637.371 593.055ZM634.598 576.017L631.469 575.232C631.456 575.282 631.445 575.332 631.435 575.382L634.598 576.017ZM635.383 572.887L632.254 572.102L635.383 572.887ZM635.086 555.121L638.187 554.232L635.086 555.121ZM632.783 547.09L635.884 546.201C635.846 546.07 635.8 545.941 635.746 545.815L632.783 547.09ZM630.271 541.251L633.234 539.976L630.271 541.251ZM623.211 528.268L625.893 526.474L623.211 528.268ZM620.079 523.587L622.76 521.793C622.696 521.697 622.627 521.605 622.554 521.517L620.079 523.587ZM619.284 522.637L616.81 524.707L619.284 522.637ZM600.05 505.919L598.345 508.658L600.05 505.919ZM596.486 503.7L598.191 500.961C598.063 500.881 597.93 500.811 597.792 500.75L596.486 503.7ZM591.979 501.704L590.673 504.654L591.979 501.704ZM567.271 495.301L566.98 498.514L567.271 495.301ZM553.107 495.301L553.398 498.514L553.107 495.301ZM540.226 496.468L539.935 493.255C539.88 493.26 539.826 493.266 539.771 493.274L540.226 496.468ZM533.247 497.461L532.792 494.267L533.247 497.461ZM521.981 499.932L521.057 496.841L521.981 499.932ZM498.717 511.42L500.61 514.033L498.717 511.42ZM497.064 512.618L495.171 510.005V510.005L497.064 512.618ZM483.246 525.328L480.8 523.223L480.8 523.223L483.246 525.328ZM482.281 526.449L484.726 528.553L484.726 528.553L482.281 526.449ZM475.457 535.702L472.724 533.988V533.988L475.457 535.702ZM475.182 536.141L477.915 537.855L477.915 537.855L475.182 536.141ZM466.597 555.691L463.485 554.839L466.597 555.691ZM464.002 581.441H460.776C460.776 581.524 460.779 581.607 460.785 581.69L464.002 581.441ZM465.222 597.238L468.438 596.99L465.222 597.238ZM468.27 612.274L465.21 613.298V613.298L468.27 612.274ZM476.756 628.879L479.378 626.999H479.378L476.756 628.879ZM480.336 633.872L477.714 635.751C477.719 635.759 477.725 635.766 477.73 635.774L480.336 633.872ZM491.983 649.825L489.377 651.727L491.983 649.825ZM496.779 658.233L493.816 659.508L493.816 659.508L496.779 658.233ZM498.338 691.473L501.443 692.346V692.345L498.338 691.473ZM491.314 716.46L494.42 717.333L491.314 716.46ZM479.703 740.946L477.062 739.094L479.703 740.946ZM445.37 789.902L447.964 791.821C447.98 791.799 447.996 791.777 448.012 791.754L445.37 789.902ZM427.705 813.783L425.111 811.864L427.705 813.783ZM126.96 226.926L123.781 227.474L126.96 226.926ZM137.128 215.625L137.338 212.405L137.128 215.625ZM418.489 329.375L420.725 327.049C420.707 327.032 420.689 327.015 420.671 326.998L418.489 329.375ZM502.251 409.914L500.015 412.24L502.251 409.914ZM579.863 409.687L582.099 412.012L579.863 409.687ZM663.387 329.375L661.206 326.998C661.187 327.015 661.169 327.032 661.151 327.049L663.387 329.375ZM305.44 226.602L305.65 223.382L305.44 226.602ZM307.411 227.444L305.23 229.821L307.411 227.444ZM180.295 528.924L181.764 526.052L180.295 528.924ZM178.584 526.599L175.405 527.147L178.584 526.599ZM293.995 589.99L290.893 589.103L293.995 589.99ZM292.362 586.231L293.831 583.359L292.362 586.231ZM283.197 822.269L284.079 819.166L283.197 822.269ZM281.018 820.186L284.079 819.166L281.018 820.186ZM252.907 735.851L255.967 734.831L252.907 735.851ZM252.865 733.945L249.763 733.058L252.865 733.945ZM686.542 854.126L685.66 851.023L686.542 854.126ZM683.117 853.009L685.66 851.023L683.117 853.009ZM398.751 852.925L401.344 854.844L398.751 852.925ZM395.275 854.11L396.157 851.006L395.275 854.11ZM800.858 820.186L803.919 821.206L800.858 820.186ZM798.679 822.269L797.798 819.166L798.679 822.269ZM829.011 733.945L825.909 734.831L829.011 733.945ZM828.97 735.851L825.909 734.831L828.97 735.851ZM789.515 586.231L788.046 583.359L789.515 586.231ZM787.881 589.99L784.779 590.876L787.881 589.99ZM560.459 428.52L563.254 430.132L560.459 428.52ZM561.018 427.807L558.782 425.481L561.018 427.807ZM903.292 526.599L900.113 526.052L903.292 526.599ZM901.582 528.924L903.051 531.796L901.582 528.924ZM538.144 457.513L540.938 455.901L538.144 457.513ZM543.733 457.513L540.938 455.901L543.733 457.513ZM776.437 226.602L776.227 223.382L776.437 226.602ZM520.859 427.807L523.095 425.481L520.859 427.807ZM521.417 428.52L518.623 430.132L521.417 428.52ZM956.306 218.859L959.486 219.407L956.306 218.859ZM952.707 211.873L776.227 223.382L776.647 229.821L953.127 218.311L952.707 211.873ZM906.472 527.147L959.486 219.407L953.127 218.311L900.113 526.052L906.472 527.147ZM790.984 589.103L903.051 531.796L900.113 526.052L788.046 583.359L790.984 589.103ZM832.114 733.058L790.984 589.103L784.779 590.876L825.909 734.831L832.114 733.058ZM803.919 821.206L832.031 736.871L825.909 734.831L797.798 819.166L803.919 821.206ZM697.184 854.457L799.561 825.373L797.798 819.166L695.421 848.25L697.184 854.457ZM687.424 857.23L697.184 854.457L695.421 848.25L685.66 851.023L687.424 857.23ZM643.061 806.951L680.575 854.994L685.66 851.023L648.147 802.98L643.061 806.951ZM636.488 797.527L642.957 806.81L648.251 803.121L641.782 793.838L636.488 797.527ZM593.327 740.462L636.562 797.629L641.708 793.736L598.473 736.57L593.327 740.462ZM583.669 719.597C585.357 727.164 588.651 734.279 593.327 740.462L598.473 736.57C594.354 731.124 591.453 724.857 589.967 718.192L583.669 719.597ZM582.371 707.813C582.371 711.777 582.806 715.728 583.669 719.597L589.967 718.192C589.207 714.785 588.823 711.304 588.823 707.813H582.371ZM582.371 695.373V707.813H588.823V695.373H582.371ZM583.121 690.765C582.624 692.251 582.371 693.807 582.371 695.373H588.823C588.823 694.503 588.964 693.638 589.24 692.813L583.121 690.765ZM583.149 690.684L583.121 690.766L589.24 692.812L589.268 692.73L583.149 690.684ZM588.786 683.324C586.141 685.081 584.157 687.671 583.149 690.683L589.268 692.73C589.82 691.08 590.907 689.662 592.356 688.699L588.786 683.324ZM595.266 681.012C592.95 681.243 590.725 682.036 588.786 683.324L592.356 688.699C593.418 687.994 594.637 687.559 595.906 687.432L595.266 681.012ZM610.685 679.476L595.266 681.012L595.906 687.432L611.325 685.896L610.685 679.476ZM625.004 679.46H611.005V685.912H625.004V679.46ZM628.537 678.889C627.398 679.267 626.205 679.46 625.004 679.46V685.912C626.896 685.912 628.775 685.608 630.571 685.012L628.537 678.889ZM630.006 678.401L628.537 678.889L630.571 685.012L632.039 684.524L630.006 678.401ZM631.82 677.284C631.31 677.791 630.689 678.174 630.006 678.401L632.039 684.524C633.672 683.982 635.155 683.068 636.374 681.855L631.82 677.284ZM633.186 673.993C633.186 675.228 632.695 676.412 631.82 677.284L636.374 681.855C638.464 679.773 639.639 676.944 639.639 673.993H633.186ZM633.186 672.633V673.993H639.639V672.633H633.186ZM633.106 671.509C633.16 671.882 633.186 672.257 633.186 672.633H639.639C639.639 671.951 639.59 671.269 639.493 670.593L633.106 671.509ZM631.927 663.289L633.106 671.509L639.493 670.593L638.314 662.373L631.927 663.289ZM634.932 654.296C632.567 656.652 631.454 659.985 631.927 663.289L638.314 662.373C638.13 661.085 638.564 659.785 639.486 658.867L634.932 654.296ZM637.668 651.57L634.932 654.296L639.486 658.867L642.222 656.141L637.668 651.57ZM637.652 651.84C637.588 651.759 637.595 651.643 637.668 651.57L642.222 656.141C644.474 653.898 644.683 650.322 642.708 647.832L637.652 651.84ZM637.576 651.744L637.652 651.84L642.708 647.832L642.632 647.736L637.576 651.744ZM638.763 642.985C635.953 645.039 635.414 649.017 637.576 651.744L642.632 647.736C642.746 647.879 642.717 648.087 642.57 648.194L638.763 642.985ZM638.631 643.244C638.631 643.142 638.68 643.046 638.762 642.985L642.57 648.194C644.15 647.04 645.083 645.201 645.083 643.244H638.631ZM638.631 642.1V643.244H645.083V642.1H638.631ZM638.492 641.38C638.584 641.609 638.631 641.854 638.631 642.1H645.083C645.083 641.03 644.878 639.969 644.479 638.976L638.492 641.38ZM635.394 633.665L638.492 641.38L644.479 638.976L641.382 631.261L635.394 633.665ZM635.001 631.633C635.001 632.33 635.135 633.019 635.394 633.665L641.382 631.261C641.429 631.379 641.454 631.506 641.454 631.633H635.001ZM638.022 626.754C636.171 627.676 635.001 629.565 635.001 631.633H641.454C641.454 632.013 641.239 632.36 640.899 632.529L638.022 626.754ZM648.009 621.779L638.022 626.754L640.899 632.529L650.886 627.555L648.009 621.779ZM649.52 619.339C649.52 620.373 648.935 621.318 648.009 621.779L650.886 627.555C654.003 626.002 655.972 622.82 655.972 619.339H649.52ZM649.091 617.871C649.371 618.31 649.52 618.819 649.52 619.339H655.972C655.972 617.588 655.472 615.874 654.529 614.398L649.091 617.871ZM637.324 599.449L649.091 617.871L654.529 614.398L642.761 595.976L637.324 599.449ZM634.572 594.66L637.244 599.318L642.841 596.107L640.169 591.45L634.572 594.66ZM631.435 575.382C630.111 581.976 631.226 588.826 634.572 594.66L640.169 591.45C637.6 586.972 636.745 581.714 637.761 576.652L631.435 575.382ZM632.254 572.102L631.469 575.232L637.727 576.803L638.512 573.672L632.254 572.102ZM633.186 564.557C633.186 567.101 632.873 569.635 632.254 572.102L638.512 573.673C639.26 570.692 639.639 567.63 639.639 564.557H633.186ZM631.985 556.011C632.782 558.79 633.186 561.666 633.186 564.557H639.639C639.639 561.064 639.15 557.589 638.187 554.232L631.985 556.011ZM629.682 547.98L631.985 556.011L638.187 554.232L635.884 546.201L629.682 547.98ZM627.307 542.526L629.819 548.365L635.746 545.815L633.234 539.976L627.307 542.526ZM620.53 530.062C623.166 534.001 625.434 538.173 627.307 542.526L633.234 539.976C631.206 535.26 628.748 530.74 625.893 526.474L620.53 530.062ZM617.398 525.381L620.53 530.062L625.893 526.474L622.76 521.793L617.398 525.381ZM616.81 524.707L617.604 525.657L622.554 521.517L621.759 520.567L616.81 524.707ZM598.345 508.658C605.312 512.995 611.544 518.413 616.81 524.707L621.759 520.567C616.055 513.748 609.303 507.879 601.756 503.18L598.345 508.658ZM594.781 506.438L598.345 508.658L601.756 503.18L598.191 500.961L594.781 506.438ZM590.673 504.654L595.18 506.65L597.792 500.75L593.285 498.754L590.673 504.654ZM566.98 498.514C575.16 499.255 583.163 501.329 590.673 504.654L593.285 498.754C585.132 495.144 576.443 492.893 567.562 492.088L566.98 498.514ZM553.398 498.514C557.916 498.105 562.462 498.105 566.98 498.514L567.562 492.088C562.657 491.644 557.721 491.644 552.816 492.088L553.398 498.514ZM540.517 499.681L553.398 498.514L552.816 492.088L539.935 493.255L540.517 499.681ZM533.701 500.655L540.68 499.662L539.771 493.274L532.792 494.267L533.701 500.655ZM522.905 503.023C526.44 501.966 530.049 501.175 533.701 500.655L532.792 494.267C528.822 494.832 524.9 495.692 521.057 496.841L522.905 503.023ZM500.61 514.033C507.37 509.135 514.907 505.413 522.905 503.023L521.057 496.841C512.364 499.439 504.172 503.484 496.824 508.807L500.61 514.033ZM498.956 515.231L500.61 514.033L496.824 508.807L495.171 510.005L498.956 515.231ZM485.691 527.432C489.623 522.862 494.075 518.767 498.956 515.231L495.171 510.005C489.882 513.837 485.059 518.273 480.8 523.223L485.691 527.432ZM484.726 528.553L485.691 527.432L480.8 523.223L479.835 524.345L484.726 528.553ZM478.19 537.417C480.144 534.303 482.329 531.34 484.726 528.553L479.835 524.345C477.227 527.376 474.85 530.6 472.724 533.988L478.19 537.417ZM477.915 537.855L478.19 537.417L472.724 533.988L472.449 534.426L477.915 537.855ZM469.709 556.543C471.515 549.946 474.28 543.649 477.915 537.855L472.449 534.426C468.478 540.755 465.458 547.633 463.485 554.839L469.709 556.543ZM467.228 574.997C467.228 568.763 468.062 562.556 469.709 556.543L463.485 554.839C461.687 561.408 460.776 568.187 460.776 574.997H467.228ZM467.228 581.441V574.997H460.776V581.441H467.228ZM468.438 596.99L467.219 581.193L460.785 581.69L462.005 597.486L468.438 596.99ZM471.329 611.251C469.784 606.634 468.813 601.844 468.438 596.99L462.005 597.486C462.421 602.868 463.497 608.179 465.21 613.298L471.329 611.251ZM479.378 626.999C475.923 622.181 473.21 616.873 471.329 611.251L465.21 613.298C467.296 619.531 470.304 625.417 474.134 630.759L479.378 626.999ZM482.958 631.992L479.378 626.999L474.134 630.759L477.714 635.751L482.958 631.992ZM494.588 647.923L482.941 631.969L477.73 635.774L489.377 651.727L494.588 647.923ZM499.743 656.958C498.368 653.763 496.639 650.732 494.588 647.923L489.377 651.727C491.143 654.147 492.632 656.756 493.816 659.508L499.743 656.958ZM503.525 675.321C503.525 669.007 502.238 662.759 499.743 656.958L493.816 659.508C495.965 664.503 497.073 669.883 497.073 675.321H503.525ZM503.525 677.245V675.321H497.073V677.245H503.525ZM501.443 692.345C502.825 687.431 503.525 682.35 503.525 677.245H497.073C497.073 681.76 496.453 686.253 495.232 690.6L501.443 692.345ZM494.42 717.333L501.443 692.346L495.232 690.6L488.208 715.587L494.42 717.333ZM482.344 742.799C487.777 735.052 491.86 726.442 494.42 717.333L488.208 715.587C485.845 723.995 482.076 731.943 477.062 739.094L482.344 742.799ZM448.012 791.754L482.344 742.799L477.062 739.094L442.729 788.05L448.012 791.754ZM430.299 815.701L447.964 791.821L442.777 787.983L425.111 811.864L430.299 815.701ZM401.344 854.844L430.299 815.701L425.111 811.864L396.157 851.006L401.344 854.844ZM282.316 825.373L394.394 857.213L396.157 851.006L284.079 819.166L282.316 825.373ZM249.846 736.871L277.958 821.206L284.079 819.166L255.967 734.831L249.846 736.871ZM290.893 589.103L249.763 733.058L255.967 734.831L297.097 590.876L290.893 589.103ZM178.826 531.796L290.893 589.103L293.831 583.359L181.764 526.052L178.826 531.796ZM123.781 227.474L175.405 527.147L181.764 526.052L130.139 226.378L123.781 227.474ZM137.338 212.405C129.009 211.862 122.364 219.249 123.781 227.474L130.139 226.378C129.431 222.266 132.754 218.572 136.918 218.844L137.338 212.405ZM305.65 223.382L137.338 212.405L136.918 218.844L305.23 229.821L305.65 223.382ZM420.671 326.998L309.592 225.067L305.23 229.821L416.308 331.752L420.671 326.998ZM504.487 407.589L420.725 327.049L416.253 331.7L500.015 412.24L504.487 407.589ZM523.095 425.481L504.487 407.589L500.015 412.24L518.623 430.132L523.095 425.481ZM540.938 455.901L524.212 426.908L518.623 430.132L535.349 459.125L540.938 455.901ZM557.665 426.908L540.938 455.901L546.527 459.125L563.254 430.132L557.665 426.908ZM577.627 407.361L558.782 425.481L563.254 430.132L582.099 412.012L577.627 407.361ZM661.151 327.049L577.627 407.361L582.099 412.012L665.623 331.7L661.151 327.049ZM772.284 225.067L661.206 326.998L665.568 331.752L776.647 229.821L772.284 225.067ZM305.23 229.821V229.821L309.592 225.067C308.509 224.072 307.118 223.478 305.65 223.382L305.23 229.821ZM181.764 526.052H181.764L175.405 527.147C175.75 529.149 177.017 530.872 178.826 531.796L181.764 526.052ZM297.097 590.876C297.944 587.912 296.576 584.762 293.831 583.359L290.893 589.103L297.097 590.876ZM284.079 819.166L277.958 821.206C278.632 823.23 280.264 824.79 282.316 825.373L284.079 819.166ZM255.967 734.831L249.763 733.058C249.406 734.309 249.435 735.638 249.846 736.871L255.967 734.831ZM685.66 851.023L680.575 854.994C682.19 857.063 684.898 857.947 687.424 857.23L685.66 851.023ZM396.157 851.006L394.394 857.213C396.978 857.947 399.747 857.003 401.344 854.844L396.157 851.006ZM797.798 819.166L799.561 825.373C801.613 824.79 803.244 823.23 803.919 821.206L797.798 819.166ZM825.909 734.831L832.031 736.871C832.442 735.638 832.471 734.309 832.114 733.058L825.909 734.831ZM788.046 583.359C785.301 584.762 783.932 587.912 784.779 590.876L790.984 589.103L788.046 583.359ZM563.254 430.132L558.782 425.481C558.344 425.902 557.968 426.382 557.665 426.908L563.254 430.132ZM900.113 526.052L903.051 531.796C904.859 530.872 906.127 529.149 906.472 527.147L900.113 526.052ZM535.349 459.125C537.832 463.429 544.044 463.429 546.527 459.125L540.938 455.901L535.349 459.125ZM776.227 223.382C774.759 223.478 773.368 224.072 772.284 225.067L776.647 229.821L776.227 223.382ZM518.623 430.132L524.212 426.908C523.908 426.382 523.532 425.902 523.095 425.481L518.623 430.132ZM953.127 218.311V218.311L959.486 219.407C960.194 215.294 956.871 211.601 952.707 211.873L953.127 218.311Z" fill="#65E6FF" mask="url(#path-5-inside-3_806_3550)"/>
<path d="M642.318 350.442L765.291 237.949L769.948 233.797C775.132 229.175 781.6 226.455 788.381 226.044L821.383 224.044" stroke="white" stroke-width="6.58327" stroke-linecap="round"/>
<path d="M151.207 370.19L127.686 231.416C126.254 222.968 132.697 215.349 140.816 215.89L181.355 218.592" stroke="white" stroke-width="6.58327" stroke-linecap="round"/>
<path d="M930.669 363.608L905.653 509.757V509.757C903.992 520.549 897.45 529.689 887.947 534.493L845.944 555.726" stroke="white" stroke-width="6.58327" stroke-linecap="round"/>
<path d="M796.684 617.725L823.326 713.483C827.222 727.489 827.023 742.121 822.75 755.741L808.22 802.056" stroke="white" stroke-width="6.58327" stroke-linecap="round"/>
<path d="M400.733 313.763L489.587 397.839L512.963 421.214C517.552 425.802 521.565 430.889 524.915 436.362L542.684 465.392" stroke="white" stroke-width="6.58327" stroke-linecap="round"/>
<path d="M655.487 819.172L596.83 740.571C592.121 734.262 589.171 726.85 588.248 719.011L587.445 712.195" stroke="white" stroke-width="6.58327" stroke-linecap="round"/>
<path d="M282.979 631.544L294.908 592.763C296.313 588.194 294.076 583.455 289.652 581.63L289.431 581.538L220.068 547.664" stroke="white" stroke-width="6.58327" stroke-linecap="round"/>
<path d="M416.459 828.429L403.361 847.572C400.841 851.255 396.795 853.445 392.513 853.445V853.445C391.803 853.445 391.098 853.345 390.416 853.146L305.563 828.429" stroke="white" stroke-width="6.58327" stroke-linecap="round"/>
<path d="M461.942 575.59L462.085 571.394C463.48 530.177 497.981 495.906 540.654 493.347L549.539 492.815" stroke="white" stroke-width="6.58327" stroke-linecap="round"/>
<rect x="390.843" y="304.355" width="13.1665" height="13.1665" rx="2.63331" fill="white"/>
<g filter="url(#filter2_f_806_3550)">
<path d="M895.821 277.474L614.061 486.825" stroke="#AEF2FF" stroke-width="3.94996" stroke-linecap="round"/>
<path d="M890.563 410.46L643.033 527.64" stroke="#AEF2FF" stroke-width="3.94996" stroke-linecap="round"/>
<path d="M798.396 536.142L650.082 556.42" stroke="#AEF2FF" stroke-width="3.94996" stroke-linecap="round"/>
<path d="M784.516 680.92L667.334 616.403" stroke="#AEF2FF" stroke-width="3.94996" stroke-linecap="round"/>
<path d="M693.064 777.804L638.37 695.402" stroke="#AEF2FF" stroke-width="3.94996" stroke-linecap="round"/>
<path d="M783.907 788.344L659.433 659.858" stroke="#AEF2FF" stroke-width="3.94996" stroke-linecap="round"/>
<rect width="13.1665" height="13.1665" rx="2.63331" transform="matrix(-0.958234 -0.285985 -0.285985 0.958234 812.75 529.322)" fill="#AEF2FF"/>
<rect width="13.1665" height="13.1665" rx="2.63331" transform="matrix(-0.958234 -0.285985 -0.285985 0.958234 778.517 574.085)" fill="#AEF2FF"/>
<rect width="13.1665" height="13.1665" rx="2.63331" transform="matrix(-0.958234 -0.285985 -0.285985 0.958234 846.98 537.223)" fill="#AEF2FF"/>
<rect width="13.1665" height="13.1665" rx="2.63331" transform="matrix(-0.995208 0.0977846 0.0977846 0.995208 796.304 678.288)" fill="#AEF2FF"/>
<rect width="13.1665" height="13.1665" rx="2.63331" transform="matrix(-0.995208 0.0977846 0.0977846 0.995208 796.304 736.219)" fill="#AEF2FF"/>
<rect width="13.1665" height="13.1665" rx="2.63331" transform="matrix(-0.995208 0.0977846 0.0977846 0.995208 772.605 736.219)" fill="#AEF2FF"/>
<rect width="13.1665" height="13.1665" rx="2.63331" transform="matrix(-0.995208 0.0977846 0.0977846 0.995208 794.475 785.706)" fill="#AEF2FF"/>
<path d="M702.68 777.63C702.917 776.195 701.945 774.84 700.51 774.603L692.715 773.319C691.28 773.083 689.925 774.054 689.689 775.489L688.405 783.284C688.168 784.719 689.14 786.074 690.575 786.31L698.37 787.595C699.805 787.831 701.16 786.859 701.396 785.424L702.68 777.63Z" fill="#AEF2FF"/>
<path d="M738.204 479.893L735.401 475.127C730.313 466.476 733.328 455.375 742.258 449.883V449.883L831.264 400.789" stroke="#AEF2FF" stroke-width="3.94996" stroke-linecap="round"/>
<path d="M648.292 458.002L641.313 449.656C629.682 435.748 631.585 415.159 645.664 402.562V402.562L783.912 293.278" stroke="#AEF2FF" stroke-width="3.94996" stroke-linecap="round"/>
<path d="M700.216 502.868L708.194 513.206C710.438 516.114 713.247 518.532 716.468 520.328V520.328C725.006 525.088 735.622 525.046 744.633 520.215L869.923 453.042" stroke="#AEF2FF" stroke-width="3.94996" stroke-linecap="round"/>
<path d="M663.443 556.015L667.438 574.2V574.2C669.669 582.644 677.902 588.186 687.051 587.402L763.449 580.854" stroke="#AEF2FF" stroke-width="3.94996" stroke-linecap="round"/>
<path d="M694.981 551.889V551.889C694.982 559.727 701.906 565.719 710.072 564.949L733.165 562.771L835.868 545.306" stroke="#AEF2FF" stroke-width="3.94996" stroke-linecap="round"/>
<path d="M688.933 694.541L683.77 701.001C681.614 703.7 680.312 706.966 680.015 710.425V710.425C679.577 715.516 681.342 720.646 684.892 724.598L733.169 778.35" stroke="#AEF2FF" stroke-width="3.94996" stroke-linecap="round"/>
<path d="M675.235 675.656L680.379 669.302C689.513 658.02 706.905 657.911 717.369 669.072V669.072L785.835 738.856" stroke="#AEF2FF" stroke-width="3.94996" stroke-linecap="round"/>
<path d="M709.523 709.726V709.726C713.999 700.799 726.176 699.454 733.336 707.097L735.799 709.726L762.13 737.539" stroke="#AEF2FF" stroke-width="3.94996" stroke-linecap="round"/>
<rect width="13.1665" height="13.1665" rx="2.63331" transform="matrix(-1 0 0 1 793.129 282.744)" fill="#AEF2FF"/>
<rect width="13.1665" height="13.1665" rx="2.63331" transform="matrix(-0.991001 -0.133851 -0.133851 0.991001 844.41 391.933)" fill="#AEF2FF"/>
<rect width="13.1665" height="13.1665" rx="2.63331" transform="matrix(-1 0 0 1 906.359 266.945)" fill="#AEF2FF"/>
<rect width="13.1665" height="13.1665" rx="2.63331" transform="matrix(-0.991805 -0.12776 -0.12776 0.991805 884.499 442.973)" fill="#AEF2FF"/>
<rect width="13.1665" height="13.1665" rx="2.63331" transform="matrix(-0.987103 -0.160089 -0.160089 0.987103 903.727 400.722)" fill="#AEF2FF"/>
<rect width="13.1665" height="13.1665" rx="2.63331" transform="matrix(-0.987103 -0.160089 -0.160089 0.987103 745.642 780.459)" fill="#AEF2FF"/>
</g>
<path d="M895.821 277.474L614.061 486.825" stroke="#65E6FF" stroke-width="3.94996" stroke-linecap="round"/>
<path d="M890.563 410.46L643.033 527.64" stroke="#65E6FF" stroke-width="3.94996" stroke-linecap="round"/>
<path d="M831.429 529.917L650.082 556.42" stroke="#65E6FF" stroke-width="3.94996" stroke-linecap="round"/>
<path d="M784.516 680.92L667.334 616.403" stroke="#65E6FF" stroke-width="3.94996" stroke-linecap="round"/>
<path d="M693.064 777.804L638.37 695.402" stroke="#65E6FF" stroke-width="3.94996" stroke-linecap="round"/>
<path d="M783.907 788.344L659.433 659.858" stroke="#65E6FF" stroke-width="3.94996" stroke-linecap="round"/>
<rect width="13.1665" height="13.1665" rx="2.63331" transform="matrix(-0.958234 -0.285985 -0.285985 0.958234 842.971 524.27)" fill="#65E6FF"/>
<rect width="13.1665" height="13.1665" rx="2.63331" transform="matrix(-0.906151 -0.422955 -0.422955 0.906151 779.562 575.812)" fill="#65E6FF"/>
<rect width="13.1665" height="13.1665" rx="2.63331" transform="matrix(-0.926795 -0.375567 -0.375567 0.926795 805.022 549.38)" fill="#65E6FF"/>
<rect width="13.1665" height="13.1665" rx="2.63331" transform="matrix(-0.995208 0.0977846 0.0977846 0.995208 796.304 678.288)" fill="#65E6FF"/>
<rect width="13.1665" height="13.1665" rx="2.63331" transform="matrix(-0.995208 0.0977846 0.0977846 0.995208 796.304 736.219)" fill="#65E6FF"/>
<rect width="13.1665" height="13.1665" rx="2.63331" transform="matrix(-0.995208 0.0977846 0.0977846 0.995208 772.605 736.219)" fill="#65E6FF"/>
<rect width="13.1665" height="13.1665" rx="2.63331" transform="matrix(-0.995208 0.0977846 0.0977846 0.995208 792.713 783.169)" fill="#65E6FF"/>
<path d="M702.68 777.63C702.917 776.195 701.945 774.84 700.51 774.603L692.715 773.319C691.28 773.083 689.925 774.054 689.689 775.489L688.405 783.284C688.168 784.719 689.14 786.074 690.575 786.31L698.37 787.595C699.805 787.831 701.16 786.859 701.396 785.424L702.68 777.63Z" fill="#65E6FF"/>
<path d="M739.481 481.522L735.343 474.279C730.475 465.758 733.749 454.923 742.708 449.906V449.906L831.428 400.869" stroke="#65E6FF" stroke-width="3.94996" stroke-linecap="round"/>
<path d="M648.825 458.939L641.201 449.741C629.62 435.769 631.568 415.173 645.663 402.561V402.561L783.033 292.789" stroke="#65E6FF" stroke-width="3.94996" stroke-linecap="round"/>
<path d="M699.155 501.524L708.196 513.217C710.439 516.118 713.244 518.53 716.459 520.323V520.323C725.002 525.087 735.626 525.044 744.642 520.21L869.923 453.042" stroke="#65E6FF" stroke-width="3.94996" stroke-linecap="round"/>
<path d="M663.668 555.725L667.439 574.201V574.201C668.973 582.097 676.401 587.505 684.826 586.862L763.45 580.855" stroke="#65E6FF" stroke-width="3.94996" stroke-linecap="round"/>
<path d="M694.315 549.275V549.275C694.316 558.365 702.503 565.224 711.95 564.047L794.327 553.789" stroke="#65E6FF" stroke-width="3.94996" stroke-linecap="round"/>
<path d="M689.475 692.836L683.447 701.067C681.496 703.73 680.32 706.871 680.036 710.18V710.18C679.584 715.427 681.404 720.715 685.063 724.789L733.169 778.35" stroke="#65E6FF" stroke-width="3.94996" stroke-linecap="round"/>
<path d="M675.235 675.656L680.379 669.302C689.513 658.02 706.905 657.911 717.369 669.072V669.072L785.835 738.856" stroke="#65E6FF" stroke-width="3.94996" stroke-linecap="round"/>
<path d="M709.523 709.726V709.726C713.999 700.799 726.176 699.454 733.336 707.097L735.799 709.726L762.13 737.539" stroke="#65E6FF" stroke-width="3.94996" stroke-linecap="round"/>
<rect width="13.1665" height="13.1665" rx="2.63331" transform="matrix(-1 0 0 1 793.129 282.744)" fill="#65E6FF"/>
<rect width="13.1665" height="13.1665" rx="2.63331" transform="matrix(-0.991001 -0.133851 -0.133851 0.991001 844.41 391.933)" fill="#65E6FF"/>
<rect width="13.1665" height="13.1665" rx="2.63331" transform="matrix(-1 0 0 1 906.359 266.945)" fill="#65E6FF"/>
<rect width="13.1665" height="13.1665" rx="2.63331" transform="matrix(-0.991805 -0.12776 -0.12776 0.991805 884.499 442.973)" fill="#65E6FF"/>
<rect width="13.1665" height="13.1665" rx="2.63331" transform="matrix(-0.987103 -0.160089 -0.160089 0.987103 902.988 401.364)" fill="#65E6FF"/>
<rect width="13.1665" height="13.1665" rx="2.63331" transform="matrix(-0.987103 -0.160089 -0.160089 0.987103 745.288 778.823)" fill="#65E6FF"/>
<path d="M895.82 277.474L614.06 486.825" stroke="white" stroke-width="1.31665" stroke-linecap="round"/>
<path d="M894.338 408.934L643.032 527.643" stroke="white" stroke-width="1.31665" stroke-linecap="round"/>
<path d="M831.425 529.917L650.079 556.422" stroke="white" stroke-width="1.31665" stroke-linecap="round"/>
<path d="M788.463 683.56L667.333 616.409" stroke="white" stroke-width="1.31665" stroke-linecap="round"/>
<path d="M693.062 777.804L638.368 695.402" stroke="white" stroke-width="1.31665" stroke-linecap="round"/>
<path d="M787.149 791.517L659.431 659.853" stroke="white" stroke-width="1.31665" stroke-linecap="round"/>
<rect width="7.89993" height="7.89993" rx="2.63331" transform="matrix(-0.958234 -0.285985 -0.285985 0.958234 839.643 525.881)" fill="white"/>
<rect width="7.89993" height="7.89993" rx="2.63331" transform="matrix(-0.958234 -0.285985 -0.285985 0.958234 775.522 576.694)" fill="white"/>
<rect width="7.89993" height="7.89993" rx="2.63331" transform="matrix(-0.920614 -0.390474 -0.390474 0.920614 801.458 550.743)" fill="white"/>
<rect width="7.89993" height="7.89993" rx="2.63331" transform="matrix(-0.995208 0.0977846 0.0977846 0.995208 793.31 680.738)" fill="white"/>
<rect width="7.89993" height="7.89993" rx="2.63331" transform="matrix(-0.995208 0.0977846 0.0977846 0.995208 793.31 739.401)" fill="white"/>
<rect width="7.89993" height="7.89993" rx="2.63331" transform="matrix(-0.995208 0.0977846 0.0977846 0.995208 769.611 739.401)" fill="white"/>
<rect width="7.89993" height="7.89993" rx="2.63331" transform="matrix(-0.995208 0.0977846 0.0977846 0.995208 790.291 786.395)" fill="white"/>
<path d="M699.686 780.812C699.923 779.377 698.951 778.022 697.516 777.786L694.918 777.358C693.483 777.121 692.128 778.093 691.891 779.528L691.463 782.126C691.227 783.561 692.199 784.916 693.634 785.153L696.232 785.581C697.667 785.817 699.022 784.845 699.258 783.41L699.686 780.812Z" fill="white"/>
<path d="M739.479 481.523L735.567 475.034C730.399 466.461 733.351 455.36 742.256 449.884V449.884L834.547 399.159" stroke="white" stroke-width="1.31665" stroke-linecap="round"/>
<path d="M649.147 459.745L641.049 449.858C629.536 435.799 631.545 415.192 645.662 402.561V402.561L783.032 292.789" stroke="white" stroke-width="1.31665" stroke-linecap="round"/>
<path d="M699.153 501.687L708.213 513.284C710.446 516.142 713.227 518.521 716.408 520.295V520.295C724.982 525.076 735.646 525.023 744.687 520.156L874.052 450.509" stroke="white" stroke-width="1.31665" stroke-linecap="round"/>
<path d="M663.665 554.917L667.437 574.204V574.204C668.973 582.102 676.396 587.515 684.825 586.883L766.901 580.728" stroke="white" stroke-width="1.31665" stroke-linecap="round"/>
<path d="M694.314 549.917V549.917C694.678 558.84 702.824 565.386 712.115 564.22L792.714 554.11" stroke="white" stroke-width="1.31665" stroke-linecap="round"/>
<path d="M690.118 692.028L683.46 701.073C681.501 703.734 680.32 706.878 680.035 710.19V710.19C679.584 715.432 681.407 720.714 685.07 724.778L736.254 781.556" stroke="white" stroke-width="1.31665" stroke-linecap="round"/>
<path d="M675.235 675.652L680.38 669.298C689.514 658.015 706.906 657.907 717.37 669.068V669.068L788.469 741.483" stroke="white" stroke-width="1.31665" stroke-linecap="round"/>
<path d="M708.832 710.581V710.581C713.669 701.193 726.539 699.841 734.113 707.927L735.799 709.726L766.081 741.487" stroke="white" stroke-width="1.31665" stroke-linecap="round"/>
<rect width="7.89993" height="7.89993" rx="2.63331" transform="matrix(-1 0 0 1 790.135 285.925)" fill="white"/>
<rect width="7.89993" height="7.89993" rx="2.63331" transform="matrix(-0.991001 -0.133851 -0.133851 0.991001 841.416 395.113)" fill="white"/>
<rect width="7.89993" height="7.89993" rx="2.63331" transform="matrix(-1 0 0 1 903.365 270.127)" fill="white"/>
<rect width="7.89993" height="7.89993" rx="2.63331" transform="matrix(-0.991805 -0.12776 -0.12776 0.991805 881.505 446.155)" fill="white"/>
<rect width="7.89993" height="7.89993" rx="2.63331" transform="matrix(-0.987103 -0.160089 -0.160089 0.987103 900.175 403.744)" fill="white"/>
<rect width="7.89993" height="7.89993" rx="2.63331" transform="matrix(-0.987103 -0.160089 -0.160089 0.987103 742.545 781.206)" fill="white"/>
<rect x="633.019" y="347.637" width="13.1665" height="13.1665" rx="2.63331" fill="white"/>
<rect x="150.463" y="366.995" width="13.1665" height="13.1665" rx="2.63331" transform="rotate(36.4468 150.463 366.995)" fill="white"/>
<rect x="271.688" y="633.896" width="13.1665" height="13.1665" rx="2.63331" transform="rotate(-25.0942 271.688 633.896)" fill="white"/>
<rect x="410.412" y="818.723" width="13.1665" height="13.1665" rx="2.63331" transform="rotate(-14.4827 410.412 818.723)" fill="white"/>
<rect x="564.812" y="492.814" width="13.1665" height="13.1665" rx="2.63331" transform="rotate(133.104 564.812 492.814)" fill="white"/>
<rect x="651.536" y="815.221" width="13.1665" height="13.1665" rx="2.63331" fill="white"/>
<rect x="793.01" y="602.058" width="13.1665" height="13.1665" rx="2.63331" transform="rotate(32.3382 793.01 602.058)" fill="white"/>
<path d="M329.307 626.028C322.134 625.638 316.761 621.52 312.883 615.852C299.478 596.256 319.98 576.461 343.527 579.502V579.502V579.502C365.522 582.343 379.599 598.218 398.856 609.221C405.897 613.245 415.264 614.87 428.155 610.573C440.004 606.623 440.572 602.75 453.966 597.667" stroke="white" stroke-width="3.94996" stroke-linecap="round"/>
<path d="M305.56 278.275C311.235 278.274 315.544 274.797 342.952 291.293C351.434 296.398 359.02 302.859 365.863 310.013V310.013C382.34 327.24 393.779 348.655 398.934 371.929L400.449 378.769C409.121 417.927 432.596 452.215 465.964 474.466L495.903 494.431" stroke="white" stroke-width="3.94996" stroke-linecap="round"/>
<path d="M219.366 260.063C206.2 292.98 283.882 312.73 302.581 340.621C313.157 356.397 310.215 395.392 322.065 420.695C333.915 445.999 348.322 463.303 389.085 483.872C429.849 504.441 444.186 510.522 458.801 513.787" stroke="white" stroke-width="3.94996" stroke-linecap="round"/>
<path d="M182.886 363.888C171.431 379.396 162.978 411.883 220.805 417.76C237 419.8 272.708 426.82 285.98 438.574V438.574C326.234 474.224 360.938 517.702 412.867 531.656C427.497 535.588 441.925 539.067 453.962 541.21" stroke="white" stroke-width="3.94996" stroke-linecap="round"/>
<path d="M222 452.296C222.79 478.416 215.694 518.64 268.458 537.985C305.193 551.453 355.242 545.676 389.439 549.276C420.088 552.502 431.379 558.955 449.123 562.181" stroke="white" stroke-width="3.94996" stroke-linecap="round"/>
<path d="M405.572 612.184C395.894 612.184 363.659 616.828 360.405 639.609C357.179 662.192 365.243 678.322 308.786 700.905" stroke="white" stroke-width="3.94996" stroke-linecap="round"/>
<path d="M465.253 629.931C459.512 642.845 452.723 662.733 385.956 689.801C367.732 697.189 348.184 704.119 336.399 719.884C331.013 727.089 326.708 735.802 325.755 745.581C323.537 768.333 326.759 778.417 328.647 782.778" stroke="white" stroke-width="3.94996" stroke-linecap="round"/>
<path d="M476.332 657.068V657.068C472.345 692.295 454.198 724.383 426.063 745.953L421.7 749.298" stroke="white" stroke-width="3.94996" stroke-linecap="round"/>
<path d="M305.343 276.619C305.343 282.351 300.862 286.887 295.468 286.887C290.075 286.887 285.593 282.351 285.593 276.619C285.593 270.886 290.075 266.35 295.468 266.35C300.862 266.35 305.343 270.886 305.343 276.619Z" stroke="white" stroke-width="3.94996"/>
<circle cx="185.891" cy="355.585" r="9.3166" stroke="white" stroke-width="3.94996"/>
<circle cx="222.163" cy="444.559" r="6.09043" stroke="white" stroke-width="3.94996"/>
<circle cx="335.395" cy="626.256" r="6.09043" stroke="white" stroke-width="3.94996"/>
<path d="M345.108 792.254C345.108 797.708 340.687 802.129 335.233 802.129C329.779 802.129 325.358 797.708 325.358 792.254C325.358 786.8 329.779 782.379 335.233 782.379C340.687 782.379 345.108 786.8 345.108 792.254Z" stroke="white" stroke-width="3.94996"/>
<path d="M421.339 755.748C421.339 760.893 417.168 765.064 412.022 765.064C406.877 765.064 402.705 760.893 402.705 755.748C402.705 750.602 406.877 746.431 412.022 746.431C417.168 746.431 421.339 750.602 421.339 755.748Z" stroke="white" stroke-width="3.94996"/>
<path d="M308.424 704.131C308.424 709.277 304.252 713.448 299.107 713.448C293.962 713.448 289.79 709.277 289.79 704.131C289.79 698.986 293.962 694.815 299.107 694.815C304.252 694.815 308.424 698.986 308.424 704.131Z" stroke="white" stroke-width="3.94996"/>
<circle cx="317.262" cy="663.681" r="7.2416" stroke="white" stroke-width="3.94996"/>
<circle cx="380.912" cy="811.746" r="7.2416" stroke="white" stroke-width="3.94996"/>
<circle cx="261.543" cy="495.58" r="7.2416" stroke="white" stroke-width="3.94996"/>
<circle cx="361.369" cy="380.011" r="14.1558" stroke="white" stroke-width="3.94996"/>
<circle cx="257.166" cy="368.608" r="6.09043" stroke="white" stroke-width="3.94996"/>
<path d="M425.685 709.002C425.685 714.456 421.264 718.877 415.81 718.877C410.356 718.877 405.935 714.456 405.935 709.002C405.935 703.548 410.356 699.127 415.81 699.127C421.264 699.127 425.685 703.548 425.685 709.002Z" stroke="white" stroke-width="3.94996"/>
<path d="M235.337 250.193C235.337 255.925 230.856 260.462 225.462 260.462C220.069 260.462 215.587 255.925 215.587 250.193C215.587 244.46 220.069 239.924 225.462 239.924C230.856 239.924 235.337 244.46 235.337 250.193Z" stroke="white" stroke-width="3.94996"/>
<path d="M556.103 526.029L545.795 539.369M556.103 526.029L577.932 534.518M556.103 526.029L532.456 527.848M545.795 539.369L532.456 527.848M545.795 539.369L548.237 565.88M545.795 539.369L577.932 534.518M545.795 539.369L524.573 559.378M532.456 527.848L508.202 541.794M548.237 565.88L524.573 559.378M548.237 565.88L556.103 579.994M548.237 565.88L573.081 568.474M508.202 541.794L524.573 559.378M508.202 541.794L498.5 559.378M524.573 559.378H498.5M524.573 559.378L527.605 591.515M498.5 559.378L505.17 581.813L527.605 591.515M556.103 579.994L573.081 568.474M556.103 579.994L528.383 590.396L527.605 591.515M556.103 579.994L527.147 604.248L527.605 591.515M573.081 568.474L590.665 553.921L577.932 534.518M573.081 568.474L577.932 534.518" stroke="#B5F3FF" stroke-width="4.18936" stroke-linecap="round" stroke-linejoin="round"/>
<rect x="932.926" y="349.595" width="13.1665" height="13.1665" rx="2.63331" transform="rotate(52.6584 932.926 349.595)" fill="white"/>
<path d="M287.818 439.584L263.636 411.197C255.529 401.679 252.524 388.803 255.556 376.674V376.674" stroke="white" stroke-width="3.22617" stroke-linecap="round"/>
<defs>
<filter id="filter0_f_806_3550" x="72.2078" y="162.159" width="937.458" height="745.227" filterUnits="userSpaceOnUse" color-interpolation-filters="sRGB">
<feFlood flood-opacity="0" result="BackgroundImageFix"/>
<feBlend mode="normal" in="SourceGraphic" in2="BackgroundImageFix" result="shape"/>
<feGaussianBlur stdDeviation="26.3331" result="effect1_foregroundBlur_806_3550"/>
</filter>
<filter id="filter1_f_806_3550" x="60.3507" y="150.302" width="961.173" height="768.941" filterUnits="userSpaceOnUse" color-interpolation-filters="sRGB">
<feFlood flood-opacity="0" result="BackgroundImageFix"/>
<feBlend mode="normal" in="SourceGraphic" in2="BackgroundImageFix" result="shape"/>
<feGaussianBlur stdDeviation="32.2617" result="effect1_foregroundBlur_806_3550"/>
</filter>
<filter id="filter2_f_806_3550" x="585.715" y="240.612" width="346.978" height="585.573" filterUnits="userSpaceOnUse" color-interpolation-filters="sRGB">
<feFlood flood-opacity="0" result="BackgroundImageFix"/>
<feBlend mode="normal" in="SourceGraphic" in2="BackgroundImageFix" result="shape"/>
<feGaussianBlur stdDeviation="13.1665" result="effect1_foregroundBlur_806_3550"/>
</filter>
<linearGradient id="paint0_linear_806_3550" x1="713.11" y1="589.226" x2="92.9657" y2="589.226" gradientUnits="userSpaceOnUse">
<stop stop-color="#F7DA28"/>
<stop offset="1" stop-color="#F7DA28" stop-opacity="0"/>
</linearGradient>
<linearGradient id="paint1_linear_806_3550" x1="713.11" y1="589.226" x2="92.9657" y2="589.226" gradientUnits="userSpaceOnUse">
<stop stop-color="white"/>
<stop offset="1" stop-color="white" stop-opacity="0"/>
</linearGradient>
<linearGradient id="paint2_linear_806_3550" x1="713.223" y1="589.059" x2="95.0073" y2="589.059" gradientUnits="userSpaceOnUse">
<stop stop-color="#1377B1"/>
<stop offset="0.234375" stop-color="#1367B1" stop-opacity="0.85"/>
<stop offset="0.880208" stop-color="#1367B1" stop-opacity="0.38"/>
</linearGradient>
</defs>
</svg>
